<svg xmlns="http://www.w3.org/2000/svg" xmlns:xlink="http://www.w3.org/1999/xlink" width="360" height="128"><defs><linearGradient id="a" x1="16" y1="106" x2="88" y2="106" gradientUnits="userSpaceOnUse"><stop offset="0" stop-color="#bdc1c6" stop-opacity="0"/><stop offset=".137" stop-color="#bdc1c6" stop-opacity=".021"/><stop offset=".279" stop-color="#bdc1c6" stop-opacity=".084"/><stop offset=".424" stop-color="#bdc1c6" stop-opacity=".189"/><stop offset=".57" stop-color="#bdc1c6" stop-opacity=".336"/><stop offset=".718" stop-color="#bdc1c6" stop-opacity=".525"/><stop offset=".864" stop-color="#bdc1c6" stop-opacity=".753"/><stop offset="1" stop-color="#bdc1c6"/></linearGradient><linearGradient id="b" x1="87.958" y1="126" x2="131.958" y2="126" xlink:href="#a"/></defs><g style="isolation:isolate"><path fill="url(#a)" style="mix-blend-mode:multiply" d="M16 104h72v4H16z"/><rect x="209" y="29" width="106" height="78" rx="5" fill="#fff"/><path d="M310 30a4.005 4.005 0 0 1 4 4v68a4.005 4.005 0 0 1-4 4h-96a4.005 4.005 0 0 1-4-4V34a4.005 4.005 0 0 1 4-4h96m0-2h-96a6 6 0 0 0-6 6v68a6 6 0 0 0 6 6h96a6 6 0 0 0 6-6V34a6 6 0 0 0-6-6z" fill="#e8eaed"/><path fill="#fff" d="M215 35h94v66h-94z"/><path d="M308 36v64h-92V36h92m2-2h-96v68h96V34z" fill="#e8eaed"/><path fill="#fff" d="M113 23h134v84H113z"/><path d="M246 24v82H114V24h132m2-2H112v86h136V22z" fill="#e8eaed"/><path d="M113 23v-9a5.006 5.006 0 0 1 5-5h124a5.006 5.006 0 0 1 5 5v9z" fill="#fff"/><path d="M242 10a4.005 4.005 0 0 1 4 4v8H114v-8a4.005 4.005 0 0 1 4-4h124m0-2H118a6 6 0 0 0-6 6v10h136V14a6 6 0 0 0-6-6z" fill="#e8eaed"/><circle cx="120" cy="16" r="2" fill="#e8eaed"/><path fill="#fdd663" d="M132 32h96v96h-96z"/><g fill="#fbbc04"><rect x="140" y="96" width="48" height="2" rx="1"/><rect x="140" y="104" width="72" height="2" rx="1"/><rect x="140" y="112" width="36" height="2" rx="1"/></g><rect x="81" y="37" width="38" height="70" rx="5" fill="#fff"/><path d="M114 38a4.005 4.005 0 0 1 4 4v60a4.005 4.005 0 0 1-4 4H86a4.005 4.005 0 0 1-4-4V42a4.005 4.005 0 0 1 4-4h28m0-2H86a6 6 0 0 0-6 6v60a6 6 0 0 0 6 6h28a6 6 0 0 0 6-6V42a6 6 0 0 0-6-6z" fill="#e8eaed"/><rect x="92" y="41" width="16" height="2" rx="1" fill="#e8eaed"/><g><path fill="#f8f9fa" d="M269 41h78v22h-78z"/><path d="M346 42v20h-76V42h76m2-2h-80v24h80V40z" fill="#e8eaed"/><rect x="274" y="46" width="40" height="2" rx="1" fill="#e8eaed"/><rect x="274" y="52" width="26" height="2" rx="1" fill="#e8eaed"/><g><path fill="#fff" d="M319 46h22v12h-22z"/><path d="M340 47v10h-20V47h20m2-2h-24v14h24V45z" fill="#e8eaed"/></g></g><g><path fill="#f8f9fa" d="M45 52h50v42H45z"/><path d="M94 53v40H46V53h48m2-2H44v44h52V51z" fill="#e8eaed"/><rect x="50" y="57" width="40" height="2" rx="1" fill="#e8eaed"/><rect x="50" y="63" width="40" height="2" rx="1" fill="#e8eaed"/><g><path fill="#fff" d="M51 70h38v18H51z"/><path d="M88 71v16H52V71h36m2-2H50v20h40V69z" fill="#e8eaed"/></g></g><g><path fill="#f8f9fa" d="M257 69h34v44h-34z"/><path d="M290 70v42h-32V70h32m2-2h-36v46h36V68z" fill="#e8eaed"/><path fill="#f8f9fa" stroke="#e8eaed" stroke-linecap="round" stroke-miterlimit="10" stroke-width="2" d="M263 101h11M263 107h22"/><g><path fill="#fff" d="M263 74h22v21h-22z"/><path d="M284 75v19h-20V75h20m2-2h-24v23h24V73z" fill="#e8eaed"/></g></g><path fill="url(#b)" style="mix-blend-mode:multiply" d="M87.958 124h44v4h-44z"/><path fill="none" d="M0 0h360v128H0z"/><path fill="#feefc3" d="M140 40h80v48h-80z"/><circle cx="166" cy="64" r="18" fill="#fcc934"/><rect x="188" y="62" width="24" height="20" rx="3" fill="#fcc934"/><rect x="188" y="46" width="24" height="8" rx="4" fill="#fcc934"/></g></svg>