<svg xmlns="http://www.w3.org/2000/svg" xmlns:xlink="http://www.w3.org/1999/xlink" width="360" height="128"><defs><linearGradient id="a" x1="16" y1="106" x2="88" y2="106" gradientUnits="userSpaceOnUse"><stop offset="0" stop-color="#bdc1c6" stop-opacity="0"/><stop offset=".137" stop-color="#bdc1c6" stop-opacity=".021"/><stop offset=".279" stop-color="#bdc1c6" stop-opacity=".084"/><stop offset=".424" stop-color="#bdc1c6" stop-opacity=".189"/><stop offset=".57" stop-color="#bdc1c6" stop-opacity=".336"/><stop offset=".718" stop-color="#bdc1c6" stop-opacity=".525"/><stop offset=".864" stop-color="#bdc1c6" stop-opacity=".753"/><stop offset="1" stop-color="#bdc1c6"/></linearGradient><linearGradient id="c" x1="87.958" y1="126" x2="131.958" y2="126" xlink:href="#a"/><linearGradient id="b" x1="175" y1="81" x2="211" y2="81" gradientUnits="userSpaceOnUse"><stop offset="0" stop-color="#fbbc04" stop-opacity="0"/><stop offset=".121" stop-color="#fbbc04" stop-opacity=".017"/><stop offset=".247" stop-color="#fbbc04" stop-opacity=".066"/><stop offset=".375" stop-color="#fbbc04" stop-opacity=".149"/><stop offset=".505" stop-color="#fbbc04" stop-opacity=".265"/><stop offset=".635" stop-color="#fbbc04" stop-opacity=".414"/><stop offset=".767" stop-color="#fbbc04" stop-opacity=".598"/><stop offset=".897" stop-color="#fbbc04" stop-opacity=".81"/><stop offset="1" stop-color="#fbbc04"/></linearGradient><linearGradient id="d" x1="140" y1="81" x2="166" y2="81" xlink:href="#b"/><linearGradient id="e" x1="153.272" y1="76.728" x2="168" y2="62" gradientUnits="userSpaceOnUse"><stop offset="0" stop-color="#a50e0e"/><stop offset=".051" stop-color="#a50e0e" stop-opacity=".903"/><stop offset=".212" stop-color="#a50e0e" stop-opacity=".629"/><stop offset=".374" stop-color="#a50e0e" stop-opacity=".403"/><stop offset=".534" stop-color="#a50e0e" stop-opacity=".226"/><stop offset=".693" stop-color="#a50e0e" stop-opacity=".101"/><stop offset=".849" stop-color="#a50e0e" stop-opacity=".025"/><stop offset="1" stop-color="#a50e0e" stop-opacity="0"/></linearGradient></defs><g style="isolation:isolate"><g><path fill="url(#a)" style="mix-blend-mode:multiply" d="M16 104h72v4H16z"/><rect x="208" y="29" width="106" height="78" rx="5" fill="#fff"/><path d="M309 30a4.005 4.005 0 014 4v68a4.005 4.005 0 01-4 4h-96a4.005 4.005 0 01-4-4V34a4.005 4.005 0 014-4h96m0-2h-96a6 6 0 00-6 6v68a6 6 0 006 6h96a6 6 0 006-6V34a6 6 0 00-6-6z" fill="#e8eaed"/><path fill="#fff" d="M214 35h94v66h-94z"/><path d="M307 36v64h-92V36h92m2-2h-96v68h96V34z" fill="#e8eaed"/><path fill="#fff" d="M113 23h134v84H113z"/><path d="M246 24v82H114V24h132m2-2H112v86h136V22z" fill="#e8eaed"/><path d="M113 23v-9a5.006 5.006 0 015-5h124a5.006 5.006 0 015 5v9z" fill="#fff"/><path d="M242 10a4.005 4.005 0 014 4v8H114v-8a4.005 4.005 0 014-4h124m0-2H118a6 6 0 00-6 6v10h136V14a6 6 0 00-6-6z" fill="#e8eaed"/><circle cx="120" cy="16" r="2" fill="#e8eaed"/><path fill="#fcc934" d="M132 32h96v96h-96z"/><path fill="#feefc3" d="M140 40h80v48h-80z"/><rect x="140" y="96" width="48" height="2" rx="1" fill="#34a853"/><rect x="140" y="104" width="72" height="2" rx="1" fill="#f29900"/><rect x="140" y="112" width="36" height="2" rx="1" fill="#f29900"/><rect x="81" y="37" width="38" height="70" rx="5" fill="#fff"/><path d="M114 38a4.005 4.005 0 014 4v60a4.005 4.005 0 01-4 4H86a4.005 4.005 0 01-4-4V42a4.005 4.005 0 014-4h28m0-2H86a6 6 0 00-6 6v60a6 6 0 006 6h28a6 6 0 006-6V42a6 6 0 00-6-6z" fill="#e8eaed"/><rect x="92" y="41" width="16" height="2" rx="1" fill="#e8eaed"/><path fill="#f8f9fa" d="M269 41h78v22h-78z"/><path d="M346 42v20h-76V42h76m2-2h-80v24h80V40z" fill="#e8eaed"/><rect x="274" y="46" width="40" height="2" rx="1" fill="#e8eaed"/><rect x="274" y="52" width="26" height="2" rx="1" fill="#e8eaed"/><g fill="none" stroke="#e8eaed" stroke-linecap="round" stroke-width="2"><path stroke-linejoin="round" d="M341 58l-14-6-14 6h28z"/><path d="M325 48a2.001 2.001 0 113.248 1.563A3.126 3.126 0 00327 51.985V52" stroke-miterlimit="10"/></g><g><path fill="#f8f9fa" d="M45 52h50v42H45z"/><path d="M94 53v40H46V53h48m2-2H44v44h52V51z" fill="#e8eaed"/><rect x="50" y="57" width="40" height="2" rx="1" fill="#e8eaed"/><rect x="50" y="63" width="40" height="2" rx="1" fill="#e8eaed"/><g><rect x="54" y="70" width="32" height="18" rx="1.835" fill="#fff" stroke="#e8eaed" stroke-miterlimit="10" stroke-width="2"/><circle cx="74" cy="81" r="2" fill="#e8eaed"/><path fill="#e8eaed" d="M67 78h-3v-3h-2v3h-3v2h3v3h2v-3h3v-2z"/><circle cx="79" cy="77" r="2" fill="#e8eaed"/></g></g><g><path fill="#f8f9fa" d="M257 69h34v44h-34z"/><path d="M290 70v42h-32V70h32m2-2h-36v46h36V68z" fill="#e8eaed"/><path fill="#f8f9fa" stroke="#e8eaed" stroke-linecap="round" stroke-miterlimit="10" stroke-width="2" d="M263 101h11"/><path fill="#f8f9fa" stroke="#e8eaed" stroke-linecap="round" stroke-miterlimit="10" stroke-width="2" d="M263 107h22"/><g><path d="M268.835 95a1.674 1.674 0 01-1.632-1.327l-2.222-10.666A1.667 1.667 0 01266.613 81h14.906a1.667 1.667 0 011.644 1.941l-1.778 10.666A1.661 1.661 0 01279.74 95z" fill="#fff"/><path d="M281.519 82a.666.666 0 01.657.776l-1.778 10.667a.664.664 0 01-.657.557h-10.906a.67.67 0 01-.653-.53l-2.222-10.667a.667.667 0 01.653-.803h14.906m0-2h-14.906a2.667 2.667 0 00-2.61 3.21l2.221 10.667A2.667 2.667 0 00268.835 96h10.906a2.666 2.666 0 002.63-2.228l1.778-10.667a2.667 2.667 0 00-2.63-3.105z" fill="#e8eaed"/><path fill="#fff" stroke="#e8eaed" stroke-miterlimit="10" stroke-width="2" d="M270 84.667l2 10.666"/><path fill="#fff" stroke="#e8eaed" stroke-miterlimit="10" stroke-width="2" d="M276 95.333l2-10.666"/><path fill="#fff" stroke="#e8eaed" stroke-linecap="round" stroke-miterlimit="10" stroke-width="2" d="M266 83l5-8"/><path fill="#fff" stroke="#e8eaed" stroke-linecap="round" stroke-miterlimit="10" stroke-width="2" d="M282 83l-5-8"/><g><path d="M265 85a2 2 0 010-4h18a2 2 0 010 4z" fill="#fff"/><path d="M283 82a1 1 0 010 2h-18a1 1 0 010-2h18m0-2h-18a3 3 0 000 6h18a3 3 0 000-6z" fill="#e8eaed"/></g></g></g><path fill="url(#c)" style="mix-blend-mode:multiply" d="M87.958 124h44v4h-44z"/><path fill="none" d="M0 0h360v128H0z"/><g><path d="M118.38 41.021l.959 1.738a.468.468 0 00.857-.09l.576-1.9a.468.468 0 01.359-.323l1.95-.376a.468.468 0 00.18-.843l-1.628-1.133a.468.468 0 01-.197-.441l.242-1.967a.468.468 0 00-.745-.43l-1.582 1.193a.468.468 0 01-.48.05l-1.796-.843a.468.468 0 00-.64.577l.65 1.877a.467.467 0 01-.1.473l-1.358 1.449a.468.468 0 00.35.787l1.984-.039a.467.467 0 01.419.241z" fill="#fbbc04"/><path transform="rotate(30 119.536 38.536)" fill="none" d="M115.536 34.536h8v8h-8z"/></g><path fill="url(#b)" style="mix-blend-mode:multiply" d="M175 80h36v2h-36z"/><path fill="url(#d)" style="mix-blend-mode:multiply" d="M140 80h26v2h-26z"/><g><circle cx="166" cy="64" r="18" fill="#ea4335"/><ellipse cx="166" cy="64" rx="18" ry="8" transform="rotate(-75 166 64)" fill="#fce8e6"/><path d="M170 78a17.977 17.977 0 01-14.557-28.557 17.985 17.985 0 1025.114 25.114A17.895 17.895 0 01170 78z" opacity=".5" fill="url(#e)" style="mix-blend-mode:multiply"/></g><g><path d="M181 71h-8a10 10 0 00-10 10h0m30-10h8a10 10 0 0110 10h0" fill="none" stroke="#0d652d" stroke-linecap="round" stroke-miterlimit="10" stroke-width="2"/><path d="M183 71a4 4 0 018 0" fill="none" stroke="#0d652d" stroke-miterlimit="10" stroke-width="2"/><path fill="none" stroke="#0d652d" stroke-linecap="round" stroke-miterlimit="10" stroke-width="2" d="M211 71h-48"/><circle cx="174" cy="72" r="10" fill="#34a853"/><circle cx="174" cy="72" r="8" fill="#202124"/><path d="M174 67a5 5 0 015 5" fill="none" stroke="#fff" stroke-linecap="round" stroke-miterlimit="10" style="mix-blend-mode:soft-light"/><g><circle cx="200" cy="72" r="10" fill="#34a853"/><circle cx="200" cy="72" r="8" fill="#202124"/><path d="M200 67a5 5 0 015 5" fill="none" stroke="#fff" stroke-linecap="round" stroke-miterlimit="10" style="mix-blend-mode:soft-light"/></g></g><path d="M212 54a4.735 4.735 0 00-4.8-4.667 4.923 4.923 0 00-1.4.203 8.331 8.331 0 00-14.6 1.837 2.821 2.821 0 00-.457-.04A2.706 2.706 0 00188 54z" fill="#fff"/><g><path d="M143.419 18.005l.404 5.94a1.403 1.403 0 002.444.84l3.974-4.434a1.403 1.403 0 011.386-.424l5.782 1.452a1.403 1.403 0 001.555-2.065l-2.99-5.146a1.403 1.403 0 01.024-1.448l3.153-5.04a1.403 1.403 0 00-1.481-2.115l-5.814 1.239a1.402 1.402 0 01-1.37-.473l-3.813-4.57a1.403 1.403 0 00-2.472.755l-.613 5.93a1.403 1.403 0 01-.873 1.158l-5.526 2.218a1.403 1.403 0 00-.046 2.584l5.445 2.411a1.403 1.403 0 01.831 1.188z" fill="#fbbc04"/><path transform="rotate(55 149.713 12.713)" fill="none" d="M137.713.713h24v24h-24z"/></g></g></g></svg>