<svg xmlns="http://www.w3.org/2000/svg" xmlns:xlink="http://www.w3.org/1999/xlink" width="360" height="128"><defs><linearGradient id="a" x1="80" y1="106" x2="120" y2="106" gradientUnits="userSpaceOnUse"><stop offset="0" stop-color="#bdc1c6" stop-opacity="0"/><stop offset=".137" stop-color="#bdc1c6" stop-opacity=".021"/><stop offset=".279" stop-color="#bdc1c6" stop-opacity=".084"/><stop offset=".424" stop-color="#bdc1c6" stop-opacity=".189"/><stop offset=".57" stop-color="#bdc1c6" stop-opacity=".336"/><stop offset=".718" stop-color="#bdc1c6" stop-opacity=".525"/><stop offset=".864" stop-color="#bdc1c6" stop-opacity=".753"/><stop offset="1" stop-color="#bdc1c6"/></linearGradient><linearGradient id="b" x1="164" y1="126" x2="227" y2="126" xlink:href="#a"/><linearGradient id="c" x1="146.165" y1="824.532" x2="158.165" y2="824.532" gradientTransform="rotate(-45 -680.342 392.331)" gradientUnits="userSpaceOnUse"><stop offset="0" stop-color="#1967d2"/><stop offset="1" stop-color="#1967d2" stop-opacity="0"/></linearGradient><clipPath id="d"><circle cx="180" cy="75.331" r="20" fill="none"/></clipPath></defs><g style="isolation:isolate"><path d="M20 83a7 7 0 0 1 0-14h64a7 7 0 0 1 0 14z" fill="#f8f9fa"/><path d="M84 70a6 6 0 0 1 0 12H20a6 6 0 0 1 0-12h64m0-2H20a8 8 0 0 0 0 16h64a8 8 0 0 0 0-16z" fill="#e8eaed"/><path fill="#fff" d="M21 51h62v32H21z"/><path d="M82 52v30H22V52h60m2-2H20v34h64V50z" fill="#e8eaed"/><path d="M21.172 37.294a5.006 5.006 0 0 1 3.535-6.124l55.059-14.753 2.588 9.66-59.888 16.047z" fill="#f8f9fa"/><path d="m79.058 17.642 2.07 7.728-57.955 15.529-1.035-3.864a4 4 0 0 1 2.828-4.899l54.092-14.494m1.414-2.45L24.45 30.205a6 6 0 0 0-4.243 7.349l1.553 5.796 61.82-16.565-3.107-11.591z" fill="#e8eaed"/><path fill="#fff" d="m69.54 19.158 8.859-2.374-7.071 12.247-8.859 2.374 7.071-12.247z"/><path d="m76.326 18.375-5.657 9.797-6.127 1.642 5.657-9.798 6.127-1.641m4.146-3.182-11.59 3.106-8.486 14.697 11.591-3.106 8.485-14.697z" fill="#e8eaed"/><path fill="#fff" d="m52.153 23.816 8.86-2.374-7.072 12.248-8.859 2.373 7.071-12.247z"/><path d="m58.94 23.033-5.657 9.798-6.128 1.642 5.657-9.798 6.127-1.642m4.147-3.181-11.591 3.105-8.486 14.697L54.6 34.55l8.485-14.697z" fill="#e8eaed"/><path fill="#f8f9fa" d="M21.002 41h62v10h-62z"/><path d="M82.001 42v8h-60v-8h60m2-2h-64v12h64V40z" fill="#e8eaed"/><path fill="#fff" d="m54.416 51-10-10h9.172l10 10h-9.172z"/><path d="m53.173 42 8 8H54.83l-8-8h6.343m.829-2h-12l12 12h12l-12-12z" fill="#e8eaed"/><path fill="#fff" d="m72.416 51-10-10h9.172l10 10h-9.172z"/><path d="m71.173 42 8 8H72.83l-8-8h6.343m.829-2h-12l12 12h12l-12-12z" fill="#e8eaed"/><path d="M26.002 51a5.006 5.006 0 0 1-5-5V36a5.006 5.006 0 0 1 5-5h8.586l9.414 9.414V51z" fill="#fff"/><path d="m34.173 32 8.829 8.828V50h-17a4.005 4.005 0 0 1-4-4V36a4.005 4.005 0 0 1 4-4h8.171m.829-2h-9a6 6 0 0 0-6 6v10a6 6 0 0 0 6 6h19V40l-10-10z" fill="#e8eaed"/><circle cx="26.002" cy="36" r="2" fill="#e8eaed"/><circle cx="26.002" cy="46" r="2" fill="#e8eaed"/><circle cx="36.002" cy="46" r="2" fill="#e8eaed"/><g fill="#fff" stroke="#e8eaed" stroke-linecap="round" stroke-miterlimit="10" stroke-width="2"><path d="M32 59h40M44 59v16M60 59v16M32 75h40"/></g><path fill="url(#a)" style="mix-blend-mode:multiply" d="M80 104h40v4H80z"/><g><path fill="#fff" d="M113 23h134v84H113z"/><path d="M246 24v82H114V24h132m2-2H112v86h136V22z" fill="#e8eaed"/><path d="M113 23v-9a5.006 5.006 0 0 1 5-5h124a5.006 5.006 0 0 1 5 5v9z" fill="#fff"/><path d="M242 10a4.005 4.005 0 0 1 4 4v8H114v-8a4.005 4.005 0 0 1 4-4h124m0-2H118a6 6 0 0 0-6 6v10h136V14a6 6 0 0 0-6-6z" fill="#e8eaed"/><circle cx="120" cy="16" r="2" fill="#e8eaed"/></g><path fill="#fff" stroke="#e8eaed" stroke-linecap="round" stroke-miterlimit="10" stroke-width="2" d="M132 34h24M132 42h96M132 50h44"/><path fill="url(#b)" style="mix-blend-mode:multiply" d="M164 124h63v4h-63z"/><path fill="none" d="M0 0h360v128H0z"/><g><path d="M276 15a7 7 0 0 1 0-14h64a7 7 0 0 1 0 14z" fill="#f8f9fa"/><path d="M340 2a6 6 0 0 1 0 12h-64a6 6 0 0 1 0-12h64m0-2h-64a8 8 0 0 0-8 8 8 8 0 0 0 8 8h64a8 8 0 0 0 8-8 8 8 0 0 0-8-8z" fill="#e8eaed"/><g fill="none" stroke="#e8eaed" stroke-linecap="round" stroke-miterlimit="10"><rect x="338" y="4" width="2" height="4" rx="1"/><path d="M341.83 8a3.001 3.001 0 0 1-5.66 0M339 12v-2"/></g><g fill="none" stroke="#e8eaed" stroke-linecap="round" stroke-miterlimit="10"><circle cx="276" cy="7" r="2"/><path d="M277.5 8.5 280 11"/></g><path d="M293 55a8 8 0 0 1-8-8 8 8 0 0 0 8 8h38V1h-46v46" fill="#fff" stroke="#e8eaed" stroke-miterlimit="10" stroke-width="2"/><path d="M339 55a8 8 0 0 0 8-8h-46a8 8 0 0 1-8 8z" fill="#f8f9fa" stroke="#e8eaed" stroke-miterlimit="10" stroke-width="2"/><g><path fill="#f8f9fa" stroke="#e8eaed" stroke-linejoin="round" stroke-width="2" d="M291 7h34v8h-34zM291 21h12v12h-12z"/><rect x="308" y="20" width="18" height="2" rx="1" fill="#e8eaed"/><rect x="308" y="26" width="18" height="2" rx="1" fill="#e8eaed"/><rect x="290" y="38" width="36" height="2" rx="1" fill="#e8eaed"/><rect x="308" y="32" width="18" height="2" rx="1" fill="#e8eaed"/></g></g><g><path d="M82 89a13 13 0 0 1 0-26h196a13 13 0 0 1 0 26z" fill="#f8f9fa"/><path d="M278 64a12 12 0 0 1 0 24H82a12 12 0 0 1 0-24h196m0-2H82a14 14 0 0 0 0 28h196a14 14 0 0 0 0-28z" fill="#e8eaed"/></g><path fill="url(#b)" style="mix-blend-mode:multiply" d="M164 124h63v4h-63z"/><path fill="#fff" stroke="#e8eaed" stroke-linecap="round" stroke-miterlimit="10" stroke-width="2" d="M80 76h76"/><circle cx="180" cy="75.331" r="20" fill="#d2e3fc"/><g><path d="m201.213 88.059 29.699 29.698a6 6 0 0 1 0 8.486 6 6 0 0 1-8.485 0l-29.699-29.699 8.485-8.485z" fill="#4285f4"/><path d="m222.426 126.243-29.698-29.699 8.485-8.485 29.699 29.698a6 6 0 0 1 0 8.486h0a6 6 0 0 1-8.486 0z" opacity=".3" fill="url(#c)" style="mix-blend-mode:multiply"/><path d="M199.799 55.532a28 28 0 1 0 0 39.598 28 28 0 0 0 0-39.598zm-33.941 33.941a20 20 0 1 1 28.284 0 20 20 0 0 1-28.284 0z" fill="#4285f4"/></g><g clip-path="url(#d)"><rect x="147.234" y="65.664" width="36" height="22" rx="3" transform="rotate(14.999 165.246 76.67)" fill="#174ea6"/></g><g fill="none" stroke="#e8eaed" stroke-linecap="round" stroke-miterlimit="10" stroke-width="1.5"><rect x="276.5" y="69" width="3" height="7" rx="1.5"/><path d="M282.244 76a4.502 4.502 0 0 1-8.488 0M278 82v-3"/></g><rect x="190.248" y="47.752" width="28" height="28" rx="4" transform="rotate(-15 204.248 61.752)" fill="#34a853"/><rect x="225.741" y="74.966" width="26" height="18" rx="3" transform="rotate(15 238.741 83.966)" fill="#ea4335"/></g></svg>