<svg xmlns="http://www.w3.org/2000/svg" xmlns:xlink="http://www.w3.org/1999/xlink" width="360" height="128"><defs><linearGradient id="a" x1="80" y1="106" x2="120" y2="106" gradientUnits="userSpaceOnUse"><stop offset="0" stop-color="#bdc1c6" stop-opacity="0"/><stop offset=".137" stop-color="#bdc1c6" stop-opacity=".021"/><stop offset=".279" stop-color="#bdc1c6" stop-opacity=".084"/><stop offset=".424" stop-color="#bdc1c6" stop-opacity=".189"/><stop offset=".57" stop-color="#bdc1c6" stop-opacity=".336"/><stop offset=".718" stop-color="#bdc1c6" stop-opacity=".525"/><stop offset=".864" stop-color="#bdc1c6" stop-opacity=".753"/><stop offset="1" stop-color="#bdc1c6"/></linearGradient><linearGradient id="b" x1="164" y1="126" x2="227" y2="126" xlink:href="#a"/><linearGradient id="c" x1="-442.148" y1="580.845" x2="-430.148" y2="580.845" gradientTransform="rotate(-45 -680.342 -439.669)" gradientUnits="userSpaceOnUse"><stop offset="0" stop-color="#1967d2"/><stop offset="1" stop-color="#1967d2" stop-opacity="0"/></linearGradient><clipPath id="d"><circle cx="180" cy="75.331" r="20" fill="none"/></clipPath></defs><g style="isolation:isolate"><g><path fill="#fff" d="M21 51h62v32H21z"/><path d="M82 52v30H22V52h60m2-2H20v34h64V50z" fill="#e8eaed"/><path d="M21.172 37.294a5.008 5.008 0 013.535-6.124l55.059-14.752 2.588 9.66-59.888 16.046z" fill="#f8f9fa"/><path d="M79.058 17.642l2.07 7.728-57.955 15.529-1.035-3.864a4 4 0 012.828-4.899l54.092-14.494m1.414-2.45L24.45 30.205a6 6 0 00-4.243 7.349l1.553 5.795 61.82-16.564-3.107-11.591z" fill="#e8eaed"/><path fill="#fff" d="M69.54 19.157l8.859-2.373-7.071 12.247-8.859 2.374 7.071-12.248z"/><path d="M76.326 18.375l-5.657 9.797-6.127 1.642 5.657-9.798 6.127-1.641m4.146-3.182l-11.59 3.106-8.486 14.697 11.591-3.106 8.485-14.697z" fill="#e8eaed"/><path fill="#fff" d="M52.153 23.815l8.86-2.373-7.072 12.248-8.859 2.373 7.071-12.248z"/><path d="M58.94 23.033l-5.657 9.798-6.128 1.642 5.657-9.798 6.127-1.642m4.147-3.181l-11.591 3.105-8.486 14.697L54.6 34.55l8.485-14.697z" fill="#e8eaed"/><path fill="#f8f9fa" d="M21.002 41h62v10h-62z"/><path d="M82.001 42v8h-60v-8h60m2-2h-64v12h64V40z" fill="#e8eaed"/><path fill="#fff" d="M54.416 51l-10-10h9.172l10 10h-9.172z"/><path d="M53.173 42l8 8H54.83l-8-8h6.343m.829-2h-12l12 12h12l-12-12z" fill="#e8eaed"/><path fill="#fff" d="M72.416 51l-10-10h9.172l10 10h-9.172z"/><path d="M71.173 42l8 8H72.83l-8-8h6.343m.829-2h-12l12 12h12l-12-12z" fill="#e8eaed"/><path d="M26.002 51a5.006 5.006 0 01-5-5V36a5.006 5.006 0 015-5h8.586l9.414 9.414V51z" fill="#fff"/><path d="M34.173 32l8.829 8.828V50h-17a4.005 4.005 0 01-4-4V36a4.005 4.005 0 014-4h8.171m.829-2h-9a6 6 0 00-6 6v10a6 6 0 006 6h19V40l-10-10z" fill="#e8eaed"/><circle cx="26.002" cy="36" r="2" fill="#e8eaed"/><circle cx="26.002" cy="46" r="2" fill="#e8eaed"/><circle cx="36.002" cy="46" r="2" fill="#e8eaed"/><g fill="#fff" stroke="#e8eaed" stroke-linecap="round" stroke-miterlimit="10" stroke-width="2"><path d="M32 59h40"/><path d="M44 59v16"/><path d="M60 59v16"/><path d="M32 75h40"/></g><path fill="#fff" stroke="#e8eaed" stroke-linecap="round" stroke-miterlimit="10" stroke-width="2" d="M65 64h4"/><path fill="#fff" stroke="#e8eaed" stroke-linecap="round" stroke-miterlimit="10" stroke-width="2" d="M50 64h4"/><path fill="#fff" stroke="#e8eaed" stroke-linecap="round" stroke-miterlimit="10" stroke-width="2" d="M35 64h4"/><g><path d="M276 15a7 7 0 010-14h64a7 7 0 010 14z" fill="#f8f9fa"/><path d="M340 2a6 6 0 010 12h-64a6 6 0 010-12h64m0-2h-64a8 8 0 000 16h64a8 8 0 000-16z" fill="#e8eaed"/><g fill="none" stroke="#e8eaed" stroke-linecap="round" stroke-miterlimit="10"><rect x="338" y="4" width="2" height="4" rx="1"/><path d="M341.83 8a3.001 3.001 0 01-5.66 0"/><path d="M339 12v-2"/></g><g fill="none" stroke="#e8eaed" stroke-linecap="round" stroke-miterlimit="10"><circle cx="276" cy="7" r="2"/><path d="M277.5 8.5L280 11"/></g><path d="M293 55a8 8 0 01-8-8h0a8 8 0 008 8h38V1h-46v46" fill="#fff" stroke="#e8eaed" stroke-miterlimit="10" stroke-width="2"/><path d="M339 55a8 8 0 008-8h-46a8 8 0 01-8 8z" fill="#f8f9fa" stroke="#e8eaed" stroke-miterlimit="10" stroke-width="2"/><g><path fill="#f8f9fa" stroke="#e8eaed" stroke-linejoin="round" stroke-width="2" d="M291 7h34v8h-34z"/><rect x="308" y="20" width="18" height="2" rx="1" fill="#e8eaed"/><rect x="308" y="26" width="18" height="2" rx="1" fill="#e8eaed"/><rect x="290" y="38" width="36" height="2" rx="1" fill="#e8eaed"/><rect x="308" y="32" width="18" height="2" rx="1" fill="#e8eaed"/></g><g><path d="M289 18h18v18h-18z" fill="none"/><path d="M297.993 19.5A7.5 7.5 0 10305.5 27a7.496 7.496 0 00-7.507-7.5zm5.197 4.5h-2.212a11.737 11.737 0 00-1.035-2.67A6.022 6.022 0 01303.19 24zM298 21.03a10.565 10.565 0 011.433 2.97h-2.865A10.565 10.565 0 01298 21.03zm-5.805 7.47a5.867 5.867 0 010-3h2.535a10.767 10.767 0 000 3zm.615 1.5h2.212a11.737 11.737 0 001.035 2.67A5.99 5.99 0 01292.81 30zm2.212-6h-2.212a5.99 5.99 0 013.248-2.67 11.737 11.737 0 00-1.036 2.67zM298 32.97a10.565 10.565 0 01-1.433-2.97h2.865A10.565 10.565 0 01298 32.97zm1.755-4.47h-3.51a9.435 9.435 0 010-3h3.51a9.435 9.435 0 010 3zm.188 4.17a11.737 11.737 0 001.035-2.67h2.212a6.022 6.022 0 01-3.248 2.67zm1.327-4.17a10.767 10.767 0 000-3h2.535a5.867 5.867 0 010 3z" fill="#e8eaed"/></g></g><g fill="#fff" stroke="#e8eaed" stroke-linecap="round" stroke-miterlimit="10" stroke-width="2"><path d="M80 7V1"/><path d="M87.071 9.929l4.243-4.243"/><path d="M90 17h6"/></g><path fill="url(#a)" style="mix-blend-mode:multiply" d="M80 104h40v4H80z"/><g><path fill="#fff" d="M113 23h134v84H113z"/><path d="M246 24v82H114V24h132m2-2H112v86h136V22z" fill="#e8eaed"/><path d="M113 23v-9a5.006 5.006 0 015-5h124a5.006 5.006 0 015 5v9z" fill="#fff"/><path d="M242 10a4.005 4.005 0 014 4v8H114v-8a4.005 4.005 0 014-4h124m0-2H118a6 6 0 00-6 6v10h136V14a6 6 0 00-6-6z" fill="#e8eaed"/><circle cx="120" cy="16" r="2" fill="#e8eaed"/></g><path fill="#fff" stroke="#e8eaed" stroke-linecap="round" stroke-miterlimit="10" stroke-width="2" d="M132 34h24"/><path fill="none" stroke="#4285f4" stroke-linecap="round" stroke-miterlimit="10" stroke-width="2" d="M132 42h96"/><path fill="#fff" stroke="#e8eaed" stroke-linecap="round" stroke-miterlimit="10" stroke-width="2" d="M132 50h44"/><path fill="url(#b)" style="mix-blend-mode:multiply" d="M164 124h63v4h-63z"/><path fill="none" d="M0 0h360v128H0z"/><g><path d="M82 89a13 13 0 010-26h196a13 13 0 010 26z" fill="#f8f9fa"/><path d="M278 64a12 12 0 010 24H82a12 12 0 010-24h196m0-2H82a14 14 0 000 28h196a14 14 0 000-28z" fill="#e8eaed"/></g><path fill="url(#b)" style="mix-blend-mode:multiply" d="M164 124h63v4h-63z"/><path fill="#fff" stroke="#e8eaed" stroke-linecap="round" stroke-miterlimit="10" stroke-width="2" d="M80 76h76"/><circle cx="180" cy="75.331" r="20" fill="#d2e3fc"/><g><path d="M189.941 103.272h42a6 6 0 016 6 6 6 0 01-6 6h-42v-12z" transform="rotate(45 213.941 109.272)" fill="#4285f4"/><path d="M222.426 126.243l-29.698-29.699 8.485-8.485 29.699 29.698a6 6 0 010 8.486 6 6 0 01-8.486 0z" opacity=".3" fill="url(#c)" style="mix-blend-mode:multiply"/><path d="M199.799 55.532a28 28 0 100 39.598 28 28 0 000-39.598zm-33.941 33.941a20 20 0 1128.284 0 20 20 0 01-28.284 0z" fill="#4285f4"/></g><g clip-path="url(#d)"><path transform="rotate(15 165.234 76.664)" fill="#174ea6" d="M147.234 65.664h36v22h-36z"/><path d="M150.283 60.696h13a3 3 0 013 3v19h-16v-22z" transform="rotate(14.999 158.294 71.702)" fill="#8ab4f8"/><path d="M165.738 64.837h16v19a3 3 0 01-3 3h-13v-22z" transform="rotate(-165 173.738 75.837)" fill="#aecbfa"/><path d="M147.824 79.372h13a3 3 0 013 3h-16v-3z" transform="rotate(15 155.824 80.872)" fill="#669df6"/><path d="M163.279 83.513h16a3 3 0 01-3 3h-13v-3z" transform="rotate(-165 171.279 85.013)" fill="#8ab4f8"/><path fill="#174ea6" d="M178.378 73.974l-1.415-2.449-2.449 1.414 2.071-7.727 3.863 1.035-2.07 7.727z"/></g><g fill="none" stroke="#e8eaed" stroke-linecap="round" stroke-miterlimit="10" stroke-width="1.5"><rect x="276.5" y="69" width="3" height="7" rx="1.5"/><path d="M282.244 76a4.502 4.502 0 01-8.488 0"/><path d="M278 82v-3"/></g><g><rect x="190.248" y="47.752" width="28" height="28" rx="4" transform="rotate(-15 204.248 61.752)" fill="#34a853"/><circle cx="204.248" cy="61.752" r="8" fill="#fbbc04"/><path d="M192.916 65.823a3.156 3.156 0 012.286-3.833 3.283 3.283 0 01.936-.11 5.554 5.554 0 019.72-1.337 1.881 1.881 0 01.287-.105 1.804 1.804 0 012.226 1.244zm23.062 1.068a4.645 4.645 0 00-8.881-.304 2.71 2.71 0 00-2.71 3.41" fill="#fff"/></g><g><path d="M140.33 74.339l5.954.115a1.403 1.403 0 001.05-2.361l-4.07-4.346a1.403 1.403 0 01-.302-1.417l1.95-5.634a1.403 1.403 0 00-1.922-1.728l-5.387 2.529a1.403 1.403 0 01-1.44-.15l-4.746-3.58a1.403 1.403 0 00-2.237 1.291l.727 5.9a1.403 1.403 0 01-.59 1.323l-4.884 3.4a1.403 1.403 0 00.537 2.529l5.854 1.128a1.403 1.403 0 011.077.97l1.728 5.698a1.403 1.403 0 002.57.27l2.876-5.213a1.402 1.402 0 011.256-.724z" fill="#fbbc04"/><path transform="rotate(-30 135.608 67.608)" fill="none" d="M123.608 55.608h24v24h-24z"/></g><g><rect x="225.741" y="74.966" width="26" height="18" rx="3" transform="rotate(15 238.741 83.966)" fill="#ea4335"/><circle cx="238.741" cy="83.966" r="6" fill="#a50e0e"/><path transform="rotate(15 234.568 72.495)" fill="#a50e0e" d="M232.568 71.495h4v2h-4z"/><circle cx="238.741" cy="83.966" r="6" fill="#a50e0e"/><circle cx="248.729" cy="81.466" r="1" fill="#a50e0e"/><circle cx="238.741" cy="83.966" r="4" fill="#202124"/></g><g><path d="M151.413 52.045l.959 1.738a.468.468 0 00.856-.09l.576-1.9a.468.468 0 01.36-.323l1.95-.376a.468.468 0 00.18-.843l-1.628-1.133a.468.468 0 01-.197-.441l.242-1.967a.468.468 0 00-.745-.43l-1.582 1.193a.468.468 0 01-.48.05l-1.796-.843a.468.468 0 00-.64.577l.65 1.877a.468.468 0 01-.101.473l-1.357 1.449a.468.468 0 00.35.787l1.984-.039a.468.468 0 01.419.241z" fill="#fbbc04"/><path transform="rotate(30 152.569 49.56)" fill="none" d="M148.569 45.56h8v8h-8z"/></g></g></g></svg>