<svg xmlns="http://www.w3.org/2000/svg" width="360" height="128"><defs><linearGradient id="a" x1="48" y1="126" x2="116" y2="126" gradientUnits="userSpaceOnUse"><stop offset="0" stop-color="#bdc1c6" stop-opacity="0"/><stop offset=".137" stop-color="#bdc1c6" stop-opacity=".021"/><stop offset=".279" stop-color="#bdc1c6" stop-opacity=".084"/><stop offset=".424" stop-color="#bdc1c6" stop-opacity=".189"/><stop offset=".57" stop-color="#bdc1c6" stop-opacity=".336"/><stop offset=".718" stop-color="#bdc1c6" stop-opacity=".525"/><stop offset=".864" stop-color="#bdc1c6" stop-opacity=".753"/><stop offset="1" stop-color="#bdc1c6"/></linearGradient></defs><g style="isolation:isolate"><path fill="#f8f9fa" d="M188 54h86v54h-86z"/><path d="M273 55v52h-84V55h84m2-2h-88v56h88V53z" fill="#e8eaed"/><path fill="none" stroke="#e8eaed" stroke-linecap="round" stroke-miterlimit="10" stroke-width="2" d="M267 97h-72"/><path fill="none" stroke="#dadce0" stroke-linecap="round" stroke-miterlimit="10" stroke-width="2" d="M195 97h66"/><circle cx="261" cy="97" r="2" fill="#dadce0"/><path fill="#f8f9fa" d="M89 53h86v54H89z"/><path d="M174 54v52H90V54h84m2-2H88v56h88V52z" fill="#e8eaed"/><path fill="none" stroke="#e8eaed" stroke-linecap="round" stroke-miterlimit="10" stroke-width="2" d="M168 96H96"/><path fill="none" stroke="#dadce0" stroke-linecap="round" stroke-miterlimit="10" stroke-width="2" d="M96 96h8"/><circle cx="105" cy="96" r="2" fill="#dadce0"/><path fill="#fff" d="M37 9h86v54H37z"/><path d="M122 10v52H38V10h84m2-2H36v56h88V8z" fill="#e8eaed"/><path fill="none" stroke="#e8eaed" stroke-linecap="round" stroke-miterlimit="10" stroke-width="2" d="M116 52H44"/><path fill="none" stroke="#dadce0" stroke-linecap="round" stroke-miterlimit="10" stroke-width="2" d="M44 52h8"/><circle cx="53" cy="52" r="2" fill="#dadce0"/><g><rect x="61" y="17" width="38" height="26" rx="3" fill="#f8f9fa"/><path d="M96 18a2.002 2.002 0 0 1 2 2v20a2.002 2.002 0 0 1-2 2H64a2.002 2.002 0 0 1-2-2V20a2.002 2.002 0 0 1 2-2h32m0-2H64a4 4 0 0 0-4 4v20a4 4 0 0 0 4 4h32a4 4 0 0 0 4-4V20a4 4 0 0 0-4-4z" fill="#e8eaed"/></g><g><path fill="#fff" d="M137 9h86v54h-86z"/><path d="M222 10v52h-84V10h84m2-2h-88v56h88V8z" fill="#e8eaed"/><path fill="none" stroke="#e8eaed" stroke-linecap="round" stroke-miterlimit="10" stroke-width="2" d="M216 52h-72"/><path fill="none" stroke="#dadce0" stroke-linecap="round" stroke-miterlimit="10" stroke-width="2" d="M144 52h32"/><circle cx="176" cy="52" r="2" fill="#dadce0"/><path fill="none" stroke="#e8eaed" stroke-linecap="round" stroke-miterlimit="10" stroke-width="2" d="M188 24h16M192 32h24M192 40h8"/><g><circle cx="177" cy="36" r="7" fill="#f8f9fa"/><path d="M177 30a6 6 0 1 1-6 6 6.007 6.007 0 0 1 6-6m0-2a8 8 0 1 0 8 8 8 8 0 0 0-8-8z" fill="#e8eaed"/></g><rect x="150.657" y="20.343" width="12" height="12" rx="2" transform="rotate(45 156.657 26.343)" fill="#f8f9fa" stroke="#e8eaed" stroke-miterlimit="10" stroke-width="2"/></g><g><path fill="#fff" d="M237 9h86v54h-86z"/><path d="M322 10v52h-84V10h84m2-2h-88v56h88V8z" fill="#e8eaed"/><path fill="none" stroke="#e8eaed" stroke-linecap="round" stroke-miterlimit="10" stroke-width="2" d="M316 52h-72"/><path fill="none" stroke="#dadce0" stroke-linecap="round" stroke-miterlimit="10" stroke-width="2" d="M244 52h8"/><circle cx="253" cy="52" r="2" fill="#dadce0"/><path d="M267 43a16 16 0 0 0-16-16h-4M267 43a12 12 0 0 1 12-12" fill="none" stroke="#e8eaed" stroke-linecap="round" stroke-linejoin="round" stroke-width="2"/><path d="M259 39a4 4 0 0 1 4 4M271 43a4 4 0 0 1 4-4" fill="none" stroke="#e8eaed" stroke-linecap="round" stroke-linejoin="round" stroke-width="1.5"/><circle cx="300" cy="29" r="14" fill="#f8f9fa" stroke="#e8eaed" stroke-miterlimit="10" stroke-width="2"/></g><path fill="none" d="M0 0h360v128H0z"/><path fill="#fce8e6" d="M116 52h128v64H116z"/><path fill="url(#a)" style="mix-blend-mode:multiply" d="M48 124h68v4H48z"/><path fill="#5f6368" d="M116 40h128v12H116zM116 116h128v12H116z"/><g><path fill="none" stroke="#80868b" stroke-linecap="round" stroke-miterlimit="10" stroke-width="2" d="M128 122h104"/><circle cx="152" cy="122" r="3" fill="#f6aea9"/><path fill="none" stroke="#f6aea9" stroke-linecap="round" stroke-miterlimit="10" stroke-width="2" d="M128 122h24"/></g><rect x="147.189" y="69.761" width="8" height="22" rx="4" transform="rotate(-15 151.19 80.761)" fill="#f6aea9"/><rect x="131.945" y="53.945" width="8" height="22" rx="4" transform="rotate(45 135.945 64.945)" fill="#f6aea9"/><rect x="186" y="64" width="28" height="44" rx="3" fill="#f6aea9"/></g></svg>