<svg xmlns="http://www.w3.org/2000/svg" xmlns:xlink="http://www.w3.org/1999/xlink" width="360" height="128"><defs><linearGradient id="a" x1="48" y1="126" x2="116" y2="126" gradientUnits="userSpaceOnUse"><stop offset="0" stop-color="#bdc1c6" stop-opacity="0"/><stop offset=".137" stop-color="#bdc1c6" stop-opacity=".021"/><stop offset=".279" stop-color="#bdc1c6" stop-opacity=".084"/><stop offset=".424" stop-color="#bdc1c6" stop-opacity=".189"/><stop offset=".57" stop-color="#bdc1c6" stop-opacity=".336"/><stop offset=".718" stop-color="#bdc1c6" stop-opacity=".525"/><stop offset=".864" stop-color="#bdc1c6" stop-opacity=".753"/><stop offset="1" stop-color="#bdc1c6"/></linearGradient><linearGradient id="c" x1="168" y1="107" x2="192" y2="107" xlink:href="#a"/><linearGradient id="d" x1="186" y1="83.5" x2="214" y2="83.5" gradientUnits="userSpaceOnUse"><stop offset="0" stop-color="#f29900"/><stop offset=".007" stop-color="#f29900" stop-opacity=".977"/><stop offset=".079" stop-color="#f29900" stop-opacity=".774"/><stop offset=".156" stop-color="#f29900" stop-opacity=".59"/><stop offset=".237" stop-color="#f29900" stop-opacity=".431"/><stop offset=".324" stop-color="#f29900" stop-opacity=".297"/><stop offset=".416" stop-color="#f29900" stop-opacity=".188"/><stop offset=".517" stop-color="#f29900" stop-opacity=".104"/><stop offset=".631" stop-color="#f29900" stop-opacity=".045"/><stop offset=".77" stop-color="#f29900" stop-opacity=".01"/><stop offset="1" stop-color="#f29900" stop-opacity="0"/></linearGradient><clipPath id="b"><circle cx="300" cy="29" r="14" fill="none" stroke="#e8eaed" stroke-miterlimit="10" stroke-width="2"/></clipPath></defs><g style="isolation:isolate"><g><path fill="#f8f9fa" d="M188 54h86v54h-86z"/><path d="M273 55v52h-84V55h84m2-2h-88v56h88V53z" fill="#e8eaed"/><path fill="none" stroke="#e8eaed" stroke-linecap="round" stroke-miterlimit="10" stroke-width="2" d="M267 97h-72"/><path fill="none" stroke="#dadce0" stroke-linecap="round" stroke-miterlimit="10" stroke-width="2" d="M195 97h66"/><circle cx="261" cy="97" r="2" fill="#dadce0"/><path fill="#f8f9fa" d="M89 53h86v54H89z"/><path d="M174 54v52H90V54h84m2-2H88v56h88V52z" fill="#e8eaed"/><path fill="none" stroke="#e8eaed" stroke-linecap="round" stroke-miterlimit="10" stroke-width="2" d="M168 96H96"/><path fill="none" stroke="#dadce0" stroke-linecap="round" stroke-miterlimit="10" stroke-width="2" d="M96 96h8"/><circle cx="105" cy="96" r="2" fill="#dadce0"/><path fill="#fff" d="M37 9h86v54H37z"/><path d="M122 10v52H38V10h84m2-2H36v56h88V8z" fill="#e8eaed"/><path fill="none" stroke="#e8eaed" stroke-linecap="round" stroke-miterlimit="10" stroke-width="2" d="M116 52H44"/><path fill="none" stroke="#dadce0" stroke-linecap="round" stroke-miterlimit="10" stroke-width="2" d="M44 52h8"/><circle cx="53" cy="52" r="2" fill="#dadce0"/><g><path d="M97.311 36.493l-1.435-11.484A8.002 8.002 0 0087.936 18H72.063a8.001 8.001 0 00-7.94 7.009l-1.435 11.484a4.9 4.9 0 008.782 3.547L76 34h8l4.53 6.04a4.9 4.9 0 008.781-3.547z" fill="#f8f9fa" stroke="#e8eaed" stroke-miterlimit="10" stroke-width="2"/><g fill="#e8eaed"><path d="M71 22h2v8h-2z"/><path transform="rotate(90 72 26)" d="M71 22h2v8h-2z"/></g><path fill="none" d="M62 18h36v24H62z"/><g fill="#e8eaed"><rect x="86.75" y="21.75" width="2.5" height="2.5" rx="1.25"/><rect x="86.75" y="27.75" width="2.5" height="2.5" rx="1.25"/><rect x="89.75" y="24.75" width="2.5" height="2.5" rx="1.25" transform="rotate(90 91 26)"/><rect x="83.75" y="24.75" width="2.5" height="2.5" rx="1.25" transform="rotate(90 85 26)"/></g></g><g><path fill="#fff" d="M137 9h86v54h-86z"/><path d="M222 10v52h-84V10h84m2-2h-88v56h88V8z" fill="#e8eaed"/><path fill="none" stroke="#e8eaed" stroke-linecap="round" stroke-miterlimit="10" stroke-width="2" d="M216 52h-72"/><path fill="none" stroke="#dadce0" stroke-linecap="round" stroke-miterlimit="10" stroke-width="2" d="M144 52h32"/><circle cx="176" cy="52" r="2" fill="#dadce0"/><g><path d="M180.727 31.546a5.273 5.273 0 11-5.272 5.272 5.279 5.279 0 015.272-5.272m0-2A7.273 7.273 0 10188 36.818a7.273 7.273 0 00-7.273-7.273zm-25.454 2A5.273 5.273 0 11150 36.818a5.279 5.279 0 015.273-5.273m0-2a7.273 7.273 0 107.272 7.273 7.273 7.273 0 00-7.272-7.273z" fill="#e8eaed"/><path fill="none" stroke="#e8eaed" stroke-linejoin="round" stroke-width="2" d="M168 36.818l-6.364-11.363h12.728L168 36.818z"/><path fill="none" stroke="#e8eaed" stroke-linejoin="round" stroke-width="2" d="M174.364 25.455l6.363 11.363H168l6.364-11.363z"/><path fill="none" stroke="#e8eaed" stroke-linecap="round" stroke-linejoin="round" stroke-width="2" d="M155.273 36.818l6.363-11.363L168 36.818"/><g fill="none" stroke="#e8eaed" stroke-linecap="round" stroke-linejoin="round" stroke-width="2"><path d="M158.454 31.136l4.089-7.287a1.364 1.364 0 00-1.19-2.03h-1.613a.909.909 0 01-.643-.267L157.545 20"/><path d="M157.546 20l1.551 1.552a.909.909 0 00.643.266h1.214"/></g><path fill="none" stroke="#e8eaed" stroke-linecap="round" stroke-linejoin="round" stroke-width="2" d="M171.182 31.136l5.227-9.318"/><path fill="none" stroke="#e8eaed" stroke-linecap="round" stroke-linejoin="round" stroke-width="2" d="M173.454 21.818H178"/></g><path fill="none" stroke="#e8eaed" stroke-linecap="round" stroke-miterlimit="10" stroke-width="2" d="M188 24h16"/><path fill="none" stroke="#e8eaed" stroke-linecap="round" stroke-miterlimit="10" stroke-width="2" d="M192 32h24"/><path fill="none" stroke="#e8eaed" stroke-linecap="round" stroke-miterlimit="10" stroke-width="2" d="M192 40h8"/></g><g><path fill="#fff" d="M237 9h86v54h-86z"/><path d="M322 10v52h-84V10h84m2-2h-88v56h88V8z" fill="#e8eaed"/><path fill="none" stroke="#e8eaed" stroke-linecap="round" stroke-miterlimit="10" stroke-width="2" d="M316 52h-72"/><path fill="none" stroke="#dadce0" stroke-linecap="round" stroke-miterlimit="10" stroke-width="2" d="M244 52h8"/><circle cx="253" cy="52" r="2" fill="#dadce0"/><g stroke="#e8eaed" stroke-miterlimit="10" stroke-width="2"><g clip-path="url(#b)" fill="#f8f9fa"><path d="M284.6 33.2l-2.8-2.8v-2.8l2.8-2.8h2.8l2.8 2.8v2.8l-2.8 2.8h-2.8z"/><path d="M295.8 13.6l2.8-2.8h2.8l2.8 2.8v2.8l-2.8 2.8h-2.8l-2.8-2.8v-2.8z"/><path d="M304.2 44.4l-2.8 2.8h-2.8l-2.8-2.8v-2.8l2.8-2.8h2.8l2.8 2.8v2.8z"/><path d="M315.4 24.8l2.8 2.8v2.8l-2.8 2.8h-2.8l-2.8-2.8v-2.8l2.8-2.8h2.8z"/></g><circle cx="300" cy="29" r="14" fill="none"/><circle cx="300" cy="29" r="14" fill="none"/><path fill="#f8f9fa" d="M295.8 27.6l2.8-2.8h2.8l2.8 2.8v2.8l-2.8 2.8h-2.8l-2.8-2.8v-2.8z"/></g><path d="M267 43a16 16 0 00-16-16h-4m20 16a12 12 0 0112-12" fill="none" stroke="#e8eaed" stroke-linecap="round" stroke-linejoin="round" stroke-width="2"/><path d="M259 39a4 4 0 014 4m8 0a4 4 0 014-4" fill="none" stroke="#e8eaed" stroke-linecap="round" stroke-linejoin="round" stroke-width="1.5"/></g><path fill="#e8eaed" d="M116 52h128v64H116z"/><path fill="url(#a)" style="mix-blend-mode:multiply" d="M48 124h68v4H48z"/><path fill="none" d="M0 0h360v128H0z"/><g><path d="M154.992 66.312a.609.609 0 00-.529.022l-9.343 5.019a.608.608 0 00-.299.692l.819 3.054 1.696 6.33.458 1.71a4.15 4.15 0 00-2.197.014c-1.781.477-2.944 1.915-2.597 3.21s2.073 1.96 3.855 1.482 2.944-1.914 2.597-3.21l-.943-3.52-1.447-5.4 8.243-4.428 1.53 5.711.458 1.71a4.15 4.15 0 00-2.196.014c-1.782.477-2.945 1.915-2.598 3.21s2.073 1.96 3.855 1.482 2.945-1.915 2.597-3.21l-.943-3.52-1.927-7.192-.744-2.779a.608.608 0 00-.345-.401zm-8.253 8.197l-.62-2.314 8.244-4.428.62 2.314zm-4.314-13.048l-2.576-4.463a.607.607 0 00-1.112.147l-2.973 11.094a4.151 4.151 0 00-1.91-1.086c-1.781-.478-3.507.186-3.854 1.482s.816 2.733 2.597 3.21 3.508-.186 3.855-1.482l3.078-11.488 1.843 3.193a.607.607 0 101.052-.607z" fill="#ea4335"/></g><g><path fill="url(#c)" style="mix-blend-mode:multiply" d="M168 106h24v2h-24z"/><path d="M183.667 86.333a6.667 6.667 0 110-13.333H187m-3.333 13.333a3.333 3.333 0 010 6.667M187 89.667a3.333 3.333 0 01-6.667 0" fill="none" stroke="#ea8600" stroke-linecap="round" stroke-miterlimit="10" stroke-width="2"/><path d="M216.333 86.333a6.667 6.667 0 100-13.333H213m3.333 13.333a3.333 3.333 0 000 6.667M213 89.667a3.333 3.333 0 006.667 0" fill="none" stroke="#ea8600" stroke-linecap="round" stroke-miterlimit="10" stroke-width="2"/><path fill="#ea8600" d="M199 96h2v8h-2z"/><path d="M186 68h28v17a14 14 0 01-14 14 14 14 0 01-14-14V68z" fill="#fbbc04"/><path fill="#fbbc04" d="M196 104h8v2h-8z"/><rect x="184" y="64" width="32" height="4" rx="2" fill="#ea8600"/><path fill="#ea8600" d="M192 106h16v2h-16z"/><path d="M186 68h28v17a14 14 0 01-14 14 14 14 0 01-14-14V68z" opacity=".5" fill="url(#d)" style="mix-blend-mode:multiply"/></g><path fill="#3c4043" d="M116 40h128v12H116z"/><path fill="#3c4043" d="M116 116h128v12H116z"/><g><path d="M240.419 52.579l.404 5.94a1.403 1.403 0 002.444.841l3.974-4.434a1.403 1.403 0 011.386-.424l5.782 1.452a1.403 1.403 0 001.555-2.065l-2.99-5.146a1.403 1.403 0 01.024-1.449l3.153-5.04a1.403 1.403 0 00-1.481-2.115l-5.814 1.24a1.403 1.403 0 01-1.37-.474l-3.813-4.569a1.403 1.403 0 00-2.472.755l-.613 5.93a1.403 1.403 0 01-.873 1.157l-5.526 2.218a1.403 1.403 0 00-.046 2.585l5.445 2.41a1.403 1.403 0 01.831 1.188z" fill="#fbbc04"/><path transform="rotate(55 246.713 47.287)" fill="none" d="M234.713 35.287h24v24h-24z"/></g><g><path d="M214.38 33.95l.959 1.737a.468.468 0 00.857-.09l.576-1.9a.468.468 0 01.359-.323l1.95-.376a.468.468 0 00.18-.842l-1.628-1.134a.468.468 0 01-.197-.44l.242-1.968a.468.468 0 00-.745-.43l-1.582 1.194a.468.468 0 01-.48.05l-1.796-.843a.468.468 0 00-.64.576l.65 1.878a.467.467 0 01-.1.472l-1.358 1.449a.468.468 0 00.35.787l1.984-.039a.467.467 0 01.419.241z" fill="#fbbc04"/><path transform="rotate(30 215.535 31.453)" fill="none" d="M211.536 27.464h8v8h-8z"/></g><g><path fill="none" stroke="#9aa0a6" stroke-linecap="round" stroke-miterlimit="10" stroke-width="2" d="M128 122h104"/><circle cx="152" cy="122" r="3" fill="#ea4335"/><path fill="none" stroke="#ea4335" stroke-linecap="round" stroke-miterlimit="10" stroke-width="2" d="M128 122h24"/></g></g></g></svg>