<svg id="Layer_1" data-name="Layer 1" xmlns="http://www.w3.org/2000/svg" viewBox="0 0 316 112"><defs><clipPath id="clip-path"><circle class="cls-1" cx="124.86" cy="72.83" r="33.24"/></clipPath><clipPath id="clip-path-2"><circle class="cls-1" cx="199.85" cy="72.83" r="33.24"/></clipPath><style>.cls-1{fill:none}.cls-3{fill:#6ea2ff}.cls-4{fill:#005446}.cls-5{fill:#ffd61d}.cls-6{fill:#ff4e45}.cls-7{fill:#d09fff}.cls-8{clip-path:url(#clip-path-2)}</style></defs><g style="clip-path:url(#clip-path)"><path class="cls-3" d="M74.71 20.06h111.54V131.6H74.71z"/><path class="cls-4" d="M127.5 32.88L113.32 66s17.35 5 23.8-8.89-9.62-24.23-9.62-24.23z"/><path class="cls-5" d="M88.84 79.1l13.03-14.7-.2 13.4 15.98-2.36-11.13 14.79 10.6 5.37-19.91 6.26-5.23-10.47-3.14-12.29z"/></g><path class="cls-3" d="M97.08 55.64l-.94-.64 31.29-45.48c3-3.94 6.65-6 10.36-5.7a10.69 10.69 0 018.39 5.74c3.59 6.42.7 14 .58 14.37l-1.07-.42c0-.07 2.82-7.45-.51-13.39A9.56 9.56 0 00137.71 5c-3.3-.24-6.62 1.62-9.35 5.22z"/><path class="cls-6" d="M174.27 51.22a13.11 13.11 0 00-24-.13l-1-.48a14.25 14.25 0 0126 .16z"/><path class="cls-7" d="M226.5 53.93l-30-43.76c-2.71-3.58-6-5.44-9.33-5.2a9.56 9.56 0 00-7.47 5.15c-3.33 6-.54 13.32-.51 13.39l-1.07.42c-.12-.33-3-7.95.58-14.37a10.69 10.69 0 018.39-5.74c3.71-.26 7.37 1.76 10.34 5.68l30 43.78z"/><path class="cls-4" d="M124.86 106.64a33.81 33.81 0 1133.81-33.81 33.85 33.85 0 01-33.81 33.81zm0-66.48a32.67 32.67 0 1032.66 32.67 32.71 32.71 0 00-32.66-32.67z"/><g class="cls-8"><path class="cls-5" d="M140.91 19.31h144.9v147.86h-144.9z"/><circle cx="181.79" cy="49.53" r="5.78" style="fill:#fff"/><circle class="cls-1" cx="199.85" cy="72.83" r="33.24"/><path class="cls-6" d="M245.15 102.23a4 4 0 00-.51 0 1.82 1.82 0 00-.31.16 1.24 1.24 0 01-.23-.24c-.69-1.42-1.35-2.85-2-4.26s-1.34-2.56-2-3.85-1.39-2.83-2.08-4.25a1.58 1.58 0 01-.24-.73c0-.57-.37-.91-.6-1.34-.55-1-1.06-2.06-1.58-3.1s-1.08-2.12-1.6-3.19a4.75 4.75 0 01-.44-1.17 3.53 3.53 0 01.21-1.08l-.55.41c-.05 0-.13 0-.16-.07a31.53 31.53 0 00-2-3.81c-.68-1-1-2.13-2-2.93a8.37 8.37 0 01-1.13-1.54c-.77-1.09-1.31-.65-2.16-.06a8 8 0 00-.89.81 5 5 0 00-.24 1.09v3.7c-.45 1.58.16 3.15.08 4.74a9.16 9.16 0 00.48 2.14 5 5 0 01.1 1 2 2 0 00.36 1.37 1.44 1.44 0 01.18.53c.26 1.23.46 2.47.8 3.67.42 1.51.92 3 1.47 4.48.69 1.87 1.53 3.69 2.18 5.58 1 3 2.39 5.87 3.45 8.86.23.63.39 1.29.63 1.92a.92.92 0 01-.51 1.33c-.17-.14-.42-.25-.54-.45a25.19 25.19 0 01-1.72-3.19c-.58-1.47-1.38-2.85-1.94-4.33-1-2.69-1.89-5.44-2.8-8.18-.74-2.19-1.41-4.41-2.19-6.59-.51-1.41-1.16-2.78-1.76-4.16-.48-1.09-1-2.17-1.46-3.24a15.72 15.72 0 00-.92-1.89 14.68 14.68 0 00-2.22-3.37c-.48-.44-.88-1-1.33-1.41s-.85-.38-1 .2a19.42 19.42 0 00-.83 3.34 7.93 7.93 0 001.3 5c.53.87 1 1.79 1.44 2.71.65 1.27 1.29 2.55 1.9 3.84.3.64.49 1.32.79 2s.74 1.28 1 2c.94 2.39 1.84 4.79 2.75 7.19a15.55 15.55 0 011 3.79c.11 1 .45 1.87.63 2.81a5.48 5.48 0 01.1 1.71c-.05.32-.41.81-.67.84-.66.09-1.42.3-2-.39a15.46 15.46 0 01-1-1.28c-.7-1.15-1.39-2.3-2-3.49s-.94-2.3-1.57-3.35a24.74 24.74 0 01-1.7-4.47 11.6 11.6 0 01-1.12-4.85 1.24 1.24 0 00-.18-.64 4 4 0 01-.63-2.42 2 2 0 00-.43-1.74.67.67 0 01-.16-.45 30.23 30.23 0 00-.55-3c-.21-1-.19-2-.39-3a4.54 4.54 0 00-.71-1.47 29.35 29.35 0 00-1.67-2.45 12.08 12.08 0 00-1.05-1c-.58-.59-1.14-1.19-1.77-1.73a2.32 2.32 0 00-2.23-.53 1.57 1.57 0 00-.87.69 22.12 22.12 0 00-.93 2.11 5.77 5.77 0 00-.22.58c0 .12-.14.25-.12.35a14.94 14.94 0 01.16 3.89 9.88 9.88 0 00.29 2.71 20.48 20.48 0 01.33 2.37 12.72 12.72 0 001.32 4.19c.69 1.36 1.27 2.78 2 4.15.59 1.17 1.31 2.28 1.89 3.47.87 1.78 1.56 3.67 2.55 5.39a42.41 42.41 0 012.09 4.22c.53 1.25 1 2.55 1.43 3.78-.76.65-.82.65-1.37.13a4.39 4.39 0 01-.65-.71c-1.11-1.64-2.28-3.25-3.3-5a32.18 32.18 0 01-2.33-4.52c-.32-.79-.76-1.51-1.08-2.28-.55-1.3-1-2.62-1.5-4a43.09 43.09 0 01-1.41-4.39c-.53-2.3-1.94-4.09-3.16-6a7 7 0 01-.47-1.09.56.56 0 00-.12-.23 1.66 1.66 0 01-.71-.91l.34-.42c-.09 0-.18-.09-.2-.08a.93.93 0 01-1.3-.07c-.28-.21-.6-.37-.9-.56s-.6-.08-.83.21a2.73 2.73 0 00-.63 1.58 30.69 30.69 0 00.13 4.7 25.78 25.78 0 00.62 3.82c0 .12.06.29 0 .36-.4.52-.14.94.15 1.38a.79.79 0 01.19.53 3.69 3.69 0 00.45 2.26c.33.94.61 1.9.86 2.86.06.23-.11.52-.36.81l.45.62-.36.74c-.12 0-.24 0-.28-.1-.14-.22-.36-.47-.33-.67a3.9 3.9 0 00-.55-2.29 2.23 2.23 0 01-.19-.84 14.08 14.08 0 00-.72-3.08c-.15-.54-.37-1.11.2-1.64-.79-.5-.75-1.34-.83-2.07-.12-1-.06-1.92-.11-2.87 0-.38-.14-.76-.17-1.14-.07-1-.12-2.11-.15-3.17a1.05 1.05 0 01.16-.53 1.32 1.32 0 00.1-1.28 2.76 2.76 0 010-1c1.3.29 2.43-.16 3.66-.25-.08.06-.14.14-.22.19a.93.93 0 00-.28.19 1.31 1.31 0 011.59.68 9.51 9.51 0 001.14 1.41 2.27 2.27 0 01.91 1.86 2.79 2.79 0 00.34.09 2.66 2.66 0 00.4 0 1 1 0 000-.3c-.16-.5-.34-1-.54-1.58l.75-.19c-.12-.6-.22-1.14-.33-1.67a1.18 1.18 0 00-.14-.46 3.48 3.48 0 01-.42-2.63c.08-.61-.18-1.32.43-1.82 0 0-.18-.24-.18-.37a2.75 2.75 0 01.47-1.71l.65.59a5.55 5.55 0 012.62-2.4l-.64-.46-1.6.6a2.45 2.45 0 012.51-1c.86.38 1.82.68 2.27 1.65a.48.48 0 00.21.19 7.85 7.85 0 012.7 3 1.39 1.39 0 00.31.37c.38.33.77.63 1.25 1 .21-.77-.14-1.76.82-2.28h-.5v-.62c.12-.07.19-.15.22-.14a.73.73 0 001-.39 1.11 1.11 0 011.22-.68c.32 0 .67-.27 1.21-.51.3 0 .54.38.84.77a5.66 5.66 0 011.3 2.2.53.53 0 00.25.28 1.51 1.51 0 01.84 1.21c0 .21.22.38.31.58.2.39.38.78.57 1.18.05.11.05.26.13.35.73.92 1.1 2 1.76 3a7.23 7.23 0 01-.09-1.22 1.69 1.69 0 00-.3-1.15 2.45 2.45 0 01-.18-1.13c-.07-1.22-.13-2.44-.19-3.65 0-.64-.09-1.28-.09-1.92 0-.48.06-1 .1-1.51l1.11-.2c.2-.61.44-1.25.62-1.91a1.91 1.91 0 011.24-1.49c-.78-.39-1.07-.33-1.38.26a3.71 3.71 0 00-.32.8c-.17.61-.16.61-.87 1.08a1.87 1.87 0 01.48-1.75L225 69a1.47 1.47 0 012-.12c.46.38.82.86 1.26 1.27s.95.67 1.37 1.14a35.41 35.41 0 013.3 4.6c.17.26.38.5.57.75s.27.26.27.39c0 1 .82 1.44 1.3 2.11a1.48 1.48 0 01.27.4c.9 2.33 2.44 4.31 3.48 6.56.49 1.07.93 2.15 1.44 3.21.28.6.65 1.15 1 1.74a29.15 29.15 0 011.76 3.7 18.61 18.61 0 001.16 2c.22.43.37.89.56 1.33a4.71 4.71 0 00.62 1.14 8.57 8.57 0 011.07 2.14c.23.6.82 1.09.66 1.84a5.21 5.21 0 011.23 2.12 8.73 8.73 0 011.12 2.78 1.16 1.16 0 01.65.95c.31 1.18 1.06 2.16 1.43 3.32.14.42.43.79.61 1.2.51 1.13 1.06 2.24 1.49 3.4s.64 2.5 1.18 3.65c.34.73.1 1.49.48 2.21a7 7 0 01.46 2.14 2.44 2.44 0 01-.12.68c-.08.45-.15.9-.26 1.54-.29-1-.52-1.87-.78-2.71a10.65 10.65 0 00-.87-2.53 49.82 49.82 0 01-3.61-7.19c-.66-1.53-1.42-3-2.13-4.53s-1.51-3.2-2.26-4.8c-.1-.2-.18-.41-.3-.6a2 2 0 01-.26-2.08 2.09 2.09 0 000-.52zm-29.66-16.85l.15 1.14a54.41 54.41 0 001.76 8.18 6.91 6.91 0 01.12 1.35 6.65 6.65 0 01.44.82c.47 1.2 1 2.39 1.36 3.6.46 1.41 1.31 2.66 1.56 4.14 0 .13.2.23.3.35s.3.34.42.52c.51.82 1 1.63 1.49 2.47a1.5 1.5 0 001.3.81 4.1 4.1 0 00.09-.92 11.53 11.53 0 01-.33-2c.09-1.19-.62-2.1-.88-3.16s-.7-2.1-1-3.16a12.77 12.77 0 00-.88-2.38c-.7-1.3-1.13-2.72-1.8-4s-1.2-2.87-2-4.2a1.34 1.34 0 01-.26-.52c-.18-1.29-1.16-2.07-1.84-3.04zm-3.57 21.35l.33-.2c-1.33-2.5-2.56-5-3.93-7.53a42.12 42.12 0 003.6 7.73zm13.08 2.54c-.47.21-.35.51-.3.81.58-.08.58-.08.3-.81zm-38-6.62c0 .46.34.77-.17 1.2-.22.19 0 .85 0 1.32h.61c.35.69.7 1.37.1 2.18.74 0 .79.48 1 1l-.84 1 .87.63.46 1.37c-.86.46.09 1.27-.24 2.17-.5-1.35-1-2.49-1.35-3.67s-.51-2.23-.81-3.33c-.19-.69-.5-1.34-.71-2-.32-1.08-.26-1.17.78-1.54a3.35 3.35 0 00.3-.33z"/><path class="cls-6" d="M216.52 73.43c-2 .14-1.91 1.86-2.75 2.94l-.8-.25c-.33-1.29.68-1.93 1.41-2.53a1.49 1.49 0 012.14-.16zM189 111.81c.75.06.58.47.61 1z"/></g><g class="cls-8"><path class="cls-7" d="M164.9 99l10.44-36.2L193.8 72c-10.93.93-11.51 11.46-2.09 18.46-12.26-2.37-14.61 9.4-2.58 20.34z"/><circle class="cls-1" cx="199.85" cy="72.83" r="33.24"/></g><path class="cls-4" d="M199.85 106.64a33.81 33.81 0 1133.82-33.81 33.85 33.85 0 01-33.82 33.81zm0-66.48a32.67 32.67 0 1032.67 32.67 32.7 32.7 0 00-32.67-32.67z"/><path class="cls-6" d="M126 84.18A10.34 10.34 0 00140.48 72l6.22-1.84a16.81 16.81 0 01-23.86 19.7z"/><path class="cls-3" d="M203.15 45.47a3.44 3.44 0 00-2.57-.87c-1.92.3-2.62 2.8-2.19 4.69a8.17 8.17 0 004.38 5.47 7.82 7.82 0 00-7.12 1.89 5.18 5.18 0 00-1.74 3.46 3.2 3.2 0 002 3.14 4 4 0 001.93.19 10.41 10.41 0 007.38-6.07 10.91 10.91 0 00.57 5.67c.78 1.83 2.66 3.33 4.63 3.07 2.4-.32 3.84-3.24 3.15-5.55a6.92 6.92 0 00-5.34-4.38 10 10 0 005.24-.64 4.26 4.26 0 002.53-4.27c-.38-2.24-3.1-3.59-5.3-3.07-2.73.64-4.39 4.37-4.39 4.37s-1.14-5.5-3.16-7.1z"/><path class="cls-5" d="M57 36.62c1 .48 2 1 3.06 1.45 2.69 1.12 5.4 2.2 8.1 3.3 1.16-.3 2 .74 3.2.63a15.21 15.21 0 013.27.31c1.18.15 2.35.37 3.53.48.55.05 1-.47 1.7-.22.54.19 1.34-.31 2-.56.17-.06.26-.34.41-.54.53 0 1 .83 1.6.12.3-.33 1.05-.21 1.41-.52a25.82 25.82 0 003.38-3.14c.42-.49.31-1.43.46-2.24-1.38-.5-2.62-.9-3.82-1.39-1.88-.75-3.73-1.56-5.59-2.35-1-.42-2-.87-2.93-1.29A13.87 13.87 0 0171 25.71a5 5 0 01-.49-1.19c-.22-.59-.43-1.15.47-1.42.14-.05.14-.58.23-1 6.62 0 12.09 2.78 17.1 6.65a4.62 4.62 0 001.32 3.51 2.12 2.12 0 001.45.57c2.34 0 4.61-.28 6.4-2.09 1.59-1.6 1.66-2.38.48-4.36a12.44 12.44 0 00-4.86-4.23l-6.57-3.72c.39-.71.94-.37 1.33-.23 1.25.42 2.49.89 3.7 1.43a21.43 21.43 0 017 4.28 24.77 24.77 0 011.93 2c.43.56.42 1.4 1 1.91a.48.48 0 01.06.46c-1.06 1.31-1 3.13-2.09 4.41a8.23 8.23 0 01-4.88 2.58c-1.34.28-2.7.45-4.14.68a8.65 8.65 0 01-3.86 5.52 8.45 8.45 0 01-2.82 1.28 43.84 43.84 0 01-6.82 1c-4.73.2-9.1-1.38-13.34-3.26-2-.88-3.84-2-5.74-3-.37-.19-.71-.45-1-.67zm38.9-3.83c.85-.07 1.6-.29 1.85-1.35l-1.81 1.38-2.35.33.09.36zm-7.59 0l.25-.45a11.5 11.5 0 00-3.8-4.07 26.41 26.41 0 00-5.45-2.43c-1-.42-2.14-.57-3.2-.9-.86-.27-1.69-.6-2.63-.95-.32.44-1.49-.05-1.58.85.52.44.94.79 1.34 1.15a12.8 12.8 0 002 1.75 44.94 44.94 0 009.67 4.22c1.09.31 2.25.52 3.4.79z"/><path class="cls-7" d="M75.67 94.21c3.92-.73 7.16.75 9.88 3.24s3.38 4 3.63 7.06c-.76 0-.82-.61-.9-1.13a3.33 3.33 0 00-1.41-2.38c-1.68-1.16-3.08-2.66-5-3.56a11.71 11.71 0 00-6.33-.83 14.7 14.7 0 00-4.67.89c-1.46.64-3 1.12-4.51 1.69l-2.32-1.33a30.24 30.24 0 013.29-1.91 32.62 32.62 0 008.57-5.18A12.81 12.81 0 0079.47 87a2.74 2.74 0 00.37-2.64c-2.79-.74-5.39.5-8 1s-5 2-7.31 3l-2.83-1.8c.95-.59 1.76-1.11 2.59-1.59 1.84-1 3.76-2 5.51-3.15a36.18 36.18 0 004.1-3.45 21.46 21.46 0 002.83-3c.61-.81 1.56-1.62 1.05-3l-.32.75c-.2-1.18-.29-1.29-1.37-1.34a11.22 11.22 0 00-4.55.84c-1.93.75-3.84 1.56-5.72 2.41-.55.25-1.33.18-1.62.94a4.78 4.78 0 01-.95-.13c.3-.47.45-.94.77-1.16a28.67 28.67 0 0110.3-4.58 9.7 9.7 0 012.29-.1A2.58 2.58 0 0179 71.9a5.33 5.33 0 01-.91 5.1c-1.09 1.37-2.34 2.61-3.53 3.89A2.75 2.75 0 0073.8 82c.47-.08 1-.13 1.42-.25a10.31 10.31 0 015.48.25 1.7 1.7 0 011.21 1.08c.89 2.17.8 4.1-1.09 5.76-.73.64-1.17 1.83-2 2.11s-.79 1.17-1.5 1.47a11 11 0 00-1.89 1.24z"/><path class="cls-3" d="M223.37 36.45a6 6 0 01-2.05-1.38 2.38 2.38 0 01-.59-2.43 10.83 10.83 0 012.21-4.43 33.72 33.72 0 002.07-2.8l.28.12c-.06.25-.12.7-.19.71-.49 0-.49.42-.64.69-.83 1.52-1.94 2.88-2.32 4.65s-.23 2.75 2.11 3.17a9.58 9.58 0 003.07 0c2.25-.38 4.47-.91 6.72-1.33a48.36 48.36 0 007.62-2.42 67.33 67.33 0 009.48-4.2 8.45 8.45 0 012.79-1.33l.7-.16a7.48 7.48 0 01-.41 1.35 2.77 2.77 0 01-.83 1c-1.18.75-2.45 1.38-3.61 2.16-1.46 1-2.87 2.06-4.27 3.14a23.49 23.49 0 00-5.89 6.28 4.55 4.55 0 00-.94 2.63 2.12 2.12 0 002.4 2.23c1.49-.21 2.95-.61 4.41-1a8.83 8.83 0 001.94-.54 22.72 22.72 0 013-1.22c1-.32 2-.74 3-1.15.82-.35 1.6-.79 2.44-1.11s1.64-.52 2.63-.82a19.44 19.44 0 00-.72 1.86 1.83 1.83 0 01-.8 1c-1.18 1-2.27 2-3.45 2.92a56.8 56.8 0 00-4.68 4.36 35.58 35.58 0 00-2.95 3.31 4.91 4.91 0 00-1.06 3.07 2.37 2.37 0 002.76 2.55 49.94 49.94 0 0010.62-2l3.35-1.09a6.41 6.41 0 01.73-.17c.28.79-.38.87-.73 1-.71.29-1.5.41-2.22.67-.35.13-.61.51-1 .64-1 .36-2.08.66-3.13 1-.62.18-1.24.34-1.87.46-.16 0-.38-.16-.53-.12s-.21.33-.36.4-.34 0-.52 0a1.29 1.29 0 00-.47 0 7.25 7.25 0 01-.9.29c-.34 0-.93-.16-1 0-.26.47-.5.18-.81.18s-.64.36-1 .39-.68-.3-1-.24a3.07 3.07 0 01-3.83-2.58 5.56 5.56 0 011.15-4.68q1.57-2 3.18-3.88c.78-.94 1.77-1.65 2.54-2.59a7 7 0 011.63-1.31c.28-.17.46-.22.22-.56 0 0 .13-.33.26-.41a6.53 6.53 0 011-.33l-.76-.12.62-.52-.09-.16-4.05 1.58v.14c0 .03.06 0 .09.05l.37.09-3.75 1.53-.35-.49-.25.24-.47.39c-.52-.71-.8-.17-1.19.18a1.33 1.33 0 01-.86.25c-1.19 0-2.39.4-3.57-.11a4.21 4.21 0 01-1.53-2 16.2 16.2 0 01.21-3.13 5.52 5.52 0 011.15-2.32 31.84 31.84 0 015-5.08.62.62 0 00.26-.5l-.48.14c-.8.2-1.61.39-2.41.61a4.93 4.93 0 00-1.06.37 19.07 19.07 0 01-5.5 1.79c-1.29.27-2.6.51-3.89.76-.19-.32-.31-.78-.64-.7a3.22 3.22 0 00-1 .7c-.08.06-.1.22-.18.25-.32.09-.64.15-1.21.28l.58-.46c-1.37.49-2.74.94-4.19.31l.56-.18c-.53-.12-.85-.48-.95.16zm11.26-2.34l.06.23.84-.28-.06-.14z"/><path class="cls-7" d="M293.4 80.61l-.33 1.51a5.16 5.16 0 01-3.86-.12 20 20 0 00-4.42-1c-1.79-.35-3.59-.63-5.38-1-4.42-.88-8.84-1.79-13.25-2.68-1.15-.23-2.29-.45-3.44-.66s-2-.36-3.06-.57c-.22-.05-.42-.28-.6-.4a12.3 12.3 0 01-1.58-.08c-1.38-.24-2.75-.52-4.12-.81q-3.78-.83-7.55-1.68a1.81 1.81 0 01-.35-.14l.4-1a5.82 5.82 0 013.62.47c.2.09.5.21.66.13.82-.4 1.51 0 2.27.23s1.46.07 2.19.18c1.79.28 3.58.58 5.36.93.64.13 1.23.48 1.86.62s1 0 1.54.07c2.59.47 5.18 1 7.77 1.46 2.86.53 5.72 1 8.58 1.57 1.91.36 3.8.79 5.71 1.18l5.93 1.2c.65.22 1.34.41 2.05.59z"/><path class="cls-6" d="M263.75 99.22c-3.88.23-7.24-.91-10.67-1.5-1.7-.28-3.4-.62-5.08-1-2.28-.47-4.55-1-6.81-1.48l-2.86-.65a.82.82 0 011.09-.54c1.45.53 3 .35 4.45.59q4 .61 7.95 1.29c2.86.48 5.72 1 8.92 1.53-.86-.8-1.47-1.37-2.07-1.95l-13.54-13.1a2.4 2.4 0 01-.59-.76c-.07-.19.06-.49.11-.73.19 0 .48 0 .57.16a15 15 0 003.59 3.17 8.6 8.6 0 012.75 2.84c.24.47.94.67 1.41 1a2.85 2.85 0 01.76.75c.36.62.66 1.17 1.53 1 .28 0 .64.46.91.76a6.49 6.49 0 011.2 1.52c.5 1.09 1.79 1.29 2.28 2.23a13.49 13.49 0 002 2.39c.38.45.94.72 1.36 1.14a7 7 0 01.74 1.34z"/><path class="cls-3" d="M81.87 57.12c-.13-.39-.33-.7-.25-.83.35-.55-.05-.74-.4-.86-.89-.33-1.81-.59-2.72-.87l-9.28-2.9C67 51 64.7 50.21 62.43 49.52q-9.84-3-19.69-6a29.38 29.38 0 01-3.76-1 3.28 3.28 0 00-3.57.33 2.58 2.58 0 00.51.37c1.25.5 2.49 1 3.75 1.45 2.07.7 4.16 1.35 6.25 2s4.27 1.28 6.4 1.93c3 .91 6 1.85 9 2.74 2.34.7 4.71 1.3 7.05 2 3.1.93 6.2 1.89 9.29 2.83l-3.06.07c-1.19 0-2.38.09-3.57.18a10.81 10.81 0 00-1.33.25 1.49 1.49 0 00-.58-.2c-.88 0-1.76.1-2.64.15l-3 .15-11.48.49c-1.56.07-3.11.2-4.66.28a17.89 17.89 0 01-3.86.1 4.32 4.32 0 00-3.22.69v1.32h1.8l5.15-.22c1.66-.07 3.31-.1 5-.19 2.48-.13 4.95-.31 7.43-.46 2.24-.13 4.48-.23 6.72-.38.44 0 .86-.24 1.29-.25s1.12.15 1.67.12c1.55-.07 3.09-.18 4.63-.32.62-.05 1.24-.31 1.85-.3s1.33.23 1.93-.27c.12-.1.38-.06.57 0a4.89 4.89 0 003-.32c.17-.01.36.02.57.06z"/></svg>