<svg id="Layer_1" data-name="Layer 1" xmlns="http://www.w3.org/2000/svg" viewBox="0 0 316 112"><defs><style>.cls-1{fill:#6ea2ff}.cls-2{fill:#fff}.cls-3{fill:#005446}.cls-4{fill:#d09fff}</style></defs><path class="cls-1" d="M117.13 43.21c0-21.19 18.25-38.36 40.76-38.36a43 43 0 0111.33 1.5l29.12 32.07a36.13 36.13 0 01.32 4.79c0 21.19-18.25 38.37-40.77 38.37s-40.76-17.18-40.76-38.37z"/><path class="cls-2" d="M169.23 6.33a27.13 27.13 0 00.53 10.88C173.05 30 185 38.38 198.34 38.42a36.59 36.59 0 00-9.67-21 42.9 42.9 0 00-19.44-11.09z"/><path class="cls-3" d="M124.83 110.77l-18.82-14.39 29.11-17.47-10.29 31.86z"/><path class="cls-4" d="M113.29 77.79a17.91 17.91 0 01-12.45-33.58z"/><path class="cls-1" d="M175.78 92.41l19.11-9.97-.15 20.48-18.96-10.51z"/><circle class="cls-2" cx="127.75" cy="34.44" r="3.98"/><path d="M159.49 13.11l-5.94 23.75-16.78-6.62 9.36 13.59L129 50.56l19 1.26c-9 2.46-13.05 8.53-9.82 12.75 3.08 4 11.93 2 15.87-10 .91 4.8 4.8 20.67 4.8 20.67l3.4-19.76C164.4 62.33 173 68 177 63.92c3.34-3.34-2.11-10.73-7.48-14.61 15.53 6.07 18.74-2.11 17.78-6.47-1.25-5.68-9.67-5.64-17.21-.2a84.24 84.24 0 0110.56-17.55L165.09 36z" style="fill:#ffd61d"/><path class="cls-1" d="M126.75 104.8L111.65 93l1.05-.63 14.43 11.27-.38 1.16z"/><path d="M145.1 108c-2.17 0-4.83-.85-7.91-3.4l.74-.89c3.79 3.16 7.44 4 10.53 2.29a8.56 8.56 0 002-1.56 8.26 8.26 0 01-2.79-9.44 3.87 3.87 0 014.88-2.39c1.32.38 2.15 1.58 2.34 3.37a12.29 12.29 0 01-2.64 8.18 10.1 10.1 0 009 .7 11.86 11.86 0 006.57-7.59l1.11.29a12.86 12.86 0 01-7.23 8.36 11.21 11.21 0 01-10.24-.87A9.69 9.69 0 01149 107a8.22 8.22 0 01-3.9 1zm6.17-14.4a2.8 2.8 0 00-2.54 1.88 7.2 7.2 0 002.54 8.09 11.19 11.19 0 002.48-7.44 2.52 2.52 0 00-1.52-2.38 3.52 3.52 0 00-.96-.14z" style="fill:#ff4e45"/><path class="cls-3" d="M157.89 85.76c-24.9 0-45.17-19.08-45.17-42.55S133 .66 157.89.66s45.18 19.09 45.18 42.55-20.27 42.55-45.18 42.55zm0-83.95c-24.27 0-44 18.57-44 41.4s19.75 41.41 44 41.41 44-18.58 44-41.41-19.72-41.4-44-41.4z"/><path class="cls-3" d="M215.92 58.94l-13.94 12.91 9.88 14.06 15.25-2.41 4.5-14.29-15.69-10.27z"/><path class="cls-4" d="M218.62 29a12.07 12.07 0 001.8-.3c.87-.27 1.78-.28 2.66-.48a22.72 22.72 0 002.48-.32l.3-.08h.23a4 4 0 001.65-.1c.18.22.39 0 .58 0l1.94.12c.22-.23.39-.19.64 0s.44 0 .73 0a3.93 3.93 0 001.78.3c.14 0 .3-.08.41 0 .48.18.78-.13 1-.41a20.81 20.81 0 001.46-1.73 1.75 1.75 0 00.29-1.59 3.65 3.65 0 00-1.7-2.11c-.39-.25-.77-.52-1.17-.76a13.52 13.52 0 00-3.57-1.29 18.79 18.79 0 00-3.73-.57 2.09 2.09 0 00-1.63.59 4.76 4.76 0 01-1.56 1c-.52.18-1 .48-1.5.71a4.88 4.88 0 01-.54.18c-.18.06-.37.11-.54.18a2.89 2.89 0 01-1.43.44c-.07 0-.16.06-.23.1a5.82 5.82 0 01-1.57.53h-.35a2.09 2.09 0 00-.51.09 16.08 16.08 0 01-3.76.88c-.42.07-.84.19-1.26.29a1.57 1.57 0 01-.31.08c-.88 0-1.73.39-2.61.36a12.67 12.67 0 01-1.85.09c-.21 0-.45.06-.67 0a8.37 8.37 0 01-1.29-.4.61.61 0 01-.18-1 1.09 1.09 0 00.17-.94.5.5 0 01.15-.4 12.32 12.32 0 011.5-1.2 16.71 16.71 0 012.1-1.09 11.44 11.44 0 011.31-.34 3.32 3.32 0 00.61-.32 1.16 1.16 0 001-.18 5.52 5.52 0 011.28-.51.88.88 0 001.22-.27h.05c.58.25 1.11-.14 1.67-.13a4.46 4.46 0 001.74-.34 1.32 1.32 0 011.1-.13 4.82 4.82 0 001.3-.06 4 4 0 01.75.15 5.88 5.88 0 01-.7.16c-1.12.18-2.26.21-3.36.5s-2.16.3-3.2.66a19 19 0 00-2.54.77c-.07 0-.17 0-.25.05-.63.21-1.27.39-1.87.65a15.87 15.87 0 00-1.5.84c-.27.16-.52.34-.78.51l.08.13 1.08-.55a4.85 4.85 0 01.61-.29c.72-.26 1.47-.45 2.17-.76a14.77 14.77 0 012.14-.68c1.15-.32 2.31-.56 3.48-.81a3.21 3.21 0 011.18-.14 1.85 1.85 0 001-.12.91.91 0 01.82 0 .69.69 0 00.35 0c.61-.09 1.23-.17 1.84-.28.3-.06.59-.17.88-.25.53.07 1 .34 1.61.11a3.36 3.36 0 011.34-.05c.24 0 .5 0 .6-.33h-1.77a5.24 5.24 0 00-1.85.14l-1.19-.2a.67.67 0 00-.19.05 2.93 2.93 0 011.52-.31 3.58 3.58 0 001.41-.2.36.36 0 01.14 0 1.1 1.1 0 001 0 .64.64 0 01.52.09c.18.16.28.16.4 0s.05-.07.07-.07c.43.07.54-.22.61-.54s.31-.53.08-.87a.37.37 0 01.16-.5l.52.68c.59-.65 0-1.16-.14-1.8.63.39.61 1 .81 1.48s-.19 1-.21 1.61c.2.18.38.41.74.25.09 0 .26 0 .38.11.32.17.32.17.67 0-.08.28.08.32.29.36s.39.12.59.17.31.07.46.13.49-.18.78 0a2.67 2.67 0 00.88.28 2.08 2.08 0 00.25 0h.3c.4.35 1 .29 1.39.63s.92.57 1.36.89a10.43 10.43 0 011.2 1 3.74 3.74 0 01.67.87 5 5 0 01.38 1 3.21 3.21 0 010 1.51c-.12.67-.29 1.33-.44 2a.33.33 0 01-.07.13c-.55.44-.62 1.21-1.21 1.69l1 .49a7.06 7.06 0 011.51 1c.22.19.53.26.64.57s.15.31.21.47a4.7 4.7 0 01.29.7 4.55 4.55 0 01-.12 2.61c-.09.28-.12.58-.2.94l.92.4c.08 0 .2.07.25 0s.32-.05.5 0a1.25 1.25 0 00.64 0c.51 0 .89.28 1.33.43.1 0 .2.13.28.12a2.5 2.5 0 011.48.44c.5.24 1 .45 1.5.73a9.54 9.54 0 011.09.8c.46.37.79.86 1.22 1.26a2.24 2.24 0 01.52 1.25 6.9 6.9 0 01-.16 2.39c-.13.56-.54 1-.7 1.49a3.88 3.88 0 01-1.65 1.82 10.5 10.5 0 01-1.5.94 5.88 5.88 0 01-.95.22c-.29.11-.49.44-.87.42a.37.37 0 00-.23.1 3.45 3.45 0 01-1.55.72 14.46 14.46 0 01-1.59.46c-.59.14-1.2.22-1.79.34a11.81 11.81 0 00-1.2.34 6.6 6.6 0 01-1.59.26 6.39 6.39 0 00-1.24.17.88.88 0 01-.83-.17h-.2l.13.24c-.27.32-.66.19-1 .23a2.44 2.44 0 01-1.57-.33c0-.21.21-.3.35-.42a5.23 5.23 0 002-.09c.9-.13 1.79-.33 2.68-.49 1.22-.22 2.42-.48 3.62-.8a41.71 41.71 0 004.23-1.37 15.93 15.93 0 001.88-1c.13-.08.2-.25.35-.44-.64.3-1.22.59-1.81.83s-1.44.54-2.16.81a18.42 18.42 0 00-1.88.57 3.1 3.1 0 01-.77.13l-1.72.35c-.12 0-.23.08-.35.11l-.86.2c-.65.16-1.29.32-1.94.46a7.36 7.36 0 01-1.58.16c.15-.16.29-.33.45-.47a.79.79 0 01.74-.18 1.91 1.91 0 00.82-.07c1-.24 2.07-.44 3.11-.65a1.7 1.7 0 00.31-.06 15.35 15.35 0 012.08-.59c.45-.13 1-.07 1.32-.52.34 0 .67-.18 1-.06a1.58 1.58 0 011.24-.75 1.19 1.19 0 00.91-.44 1 1 0 01.36-.28 6.3 6.3 0 002-1.5 3.74 3.74 0 00.83-1.2 1.71 1.71 0 00-.15-1.37 3.64 3.64 0 00-1.45-1.46c-.09-.06-.22-.09-.26-.17-.24-.46-.73-.5-1.13-.69s-.65-.26-1-.43a2.45 2.45 0 00-1-.33 6.11 6.11 0 01-1.24-.32 12.23 12.23 0 00-1.65-.45c-.74-.1-1.49-.08-2.24-.12-.37 0-.56.31-.87.43a7.37 7.37 0 00-.9.51c-.29.18-.58.38-.88.54s-.81.4-1.23.57c-1 .37-1.91.76-2.88 1.08-.76.25-1.55.4-2.33.58s-1.68.35-2.52.53a25.65 25.65 0 01-4.69.55 7.32 7.32 0 01-2.71-.19h-.36a1.69 1.69 0 01-.5-.14.66.66 0 01-.3-.89 4.29 4.29 0 01.24-.48 1.48 1.48 0 01-.21-.13.35.35 0 01-.08-.55c.19-.23.36-.48.56-.69a.7.7 0 01.36-.19 2.39 2.39 0 001.09-.45c.07-.06.16-.14.23-.13.43.07.7-.22 1-.42a1.76 1.76 0 01.68-.22c.53-.07.84-.58 1.35-.68.1 0 .22-.08.3-.06a2.17 2.17 0 001.33-.17 5.68 5.68 0 011.15-.28 2.94 2.94 0 001.7-.59.36.36 0 01.25-.06 4.75 4.75 0 001.73 0c.93-.14 1.86-.2 2.8-.28s1.6-.09 2.4-.14a.63.63 0 00.34-.16c.15-.11.43-.07.65-.08a2.19 2.19 0 01.36 0l-.14.1c.27 0 .54.27.75-.05a1.32 1.32 0 001.33-.63c.24-.36.45-.74.68-1.11a.89.89 0 00-.08-1 2.48 2.48 0 00-1.17-1.09 2 2 0 01-.42-.3 6.91 6.91 0 00-1.65-.59 1.52 1.52 0 00-1.48.25 34.35 34.35 0 01-3.19 1.65c-.51.24-1.08.37-1.62.56l-1.31.48a32.38 32.38 0 01-4.15 1.07 37.39 37.39 0 01-5.78.7 32 32 0 01-3.24-.1 2.18 2.18 0 01-.69-.24 1.75 1.75 0 00-.93-.24c-.23 0-.65-.53-.61-.8a2.07 2.07 0 00-.05-1 1 1 0 01.41-1.07c.29-.29.61-.55.91-.82.06 0 .12-.11.18-.11.54 0 .91-.41 1.4-.54.18 0 .47-.06.52-.36.31 0 .43-.59.83-.24a2.68 2.68 0 001.33-.62.57.57 0 01.73 0zm10.07-.79a.44.44 0 01-.15.05 19.78 19.78 0 00-3.61.06 9.41 9.41 0 00-2.63.39.77.77 0 01-.15 0 14.74 14.74 0 00-2.52.44 21.89 21.89 0 00-3.32 1.1c-.52.29-1.1.51-1.65.76a9.11 9.11 0 00-1.38 1c-.06 0-.07.17-.13.31a1.46 1.46 0 00.26-.06c.44-.25.86-.52 1.32-.74a7.08 7.08 0 012.34-1 .49.49 0 00.28-.13c.36-.31.92-.18 1.26-.55.62 0 1.14-.39 1.76-.4a8.06 8.06 0 001.16-.26c.39-.07.79-.1 1.18-.14a3.28 3.28 0 001.06-.18 3.43 3.43 0 011.16 0h.18a.26.26 0 01.44 0c.23.21.44 0 .64 0 .14-.34.43-.2.67-.19s.33.12.48.08a.44.44 0 01.37 0c.21.12.71-.2.94-.52l.27.63c.91-.2 1.85.2 2.82-.3-.29-.06-.49-.14-.7-.16zm-16.32-4.69c-.05.07-.11.13-.15.2s0 .09 0 .18l.29-.2-.17-.17 1.89-.26c.09 0 .21.08.27 0a6.05 6.05 0 011.92-.41c.4.2.72-.05 1-.23a3.94 3.94 0 011.25-.3 1.32 1.32 0 00.47-.13 2.42 2.42 0 01.52-.23l.79-.25c.27-.08.53-.18.79-.25.52-.14 1.07-.2 1.41-.7a1.34 1.34 0 01.38-.28l1.17-.69a2.27 2.27 0 00.23-.28c-1.25 0-2.4.06-3.54.11-.65 0-1.29.13-1.94.17-.32 0-.65.17-1 0-.07-.05-.2 0-.3 0a25.3 25.3 0 01-2.55.57c-.6.08-1.18.25-1.77.38-.74.17-1.47.4-2.2.61-.55.16-1.11.32-1.64.53s-1.11.5-1.67.74c-.26.11-.53.18-.78.28a1.5 1.5 0 00-.78.66c.41 0 .75.14 1.08-.08a.41.41 0 01.25 0 2.5 2.5 0 011.57.51l.11-.37zm8 9.53a1.12 1.12 0 001 0 3.12 3.12 0 01.53-.11h.57c.19 0 .47-.1.71-.16s.49 0 .63-.18.45.16.64 0h.06a9.21 9.21 0 011.25-.33c.42 0 .74-.35 1.19-.37a4.41 4.41 0 001.22-.38 8.92 8.92 0 001.14-.37c.62-.3 1.21-.65 1.81-1 .11-.06.21-.15.38-.26-.75-.05-1.41-.12-2.07-.13h-3.29c-.72 0-1.43.13-2.14.23-1.26.19-2.53.37-3.78.62-.84.16-1.65.45-2.47.68a10.31 10.31 0 00-1.61.45c-.73.36-1.4.83-2.1 1.25a.82.82 0 00.87.47 1.46 1.46 0 01.62.06 3.5 3.5 0 001.76 0c.13 0 .33 0 .39-.07a.69.69 0 01.89-.11 2.37 2.37 0 001.68 0c.07-.06.1-.2.14-.28zm.4 7.31h1.48a5.83 5.83 0 011.77-.12.49.49 0 00.19 0c.21-.05.41-.12.61-.15l2.77-.45a1.52 1.52 0 00.2-.06l.79-.24c.5-.14 1-.27 1.5-.42a.71.71 0 00.27-.2c.34 0 .61 0 .87-.1s.42-.17.63-.25a.91.91 0 00.53-.38.72.72 0 01.5-.21c.37 0 .37 0 .47-.37a.26.26 0 00-.1 0 21.35 21.35 0 00-2.76.2 7.57 7.57 0 01-1.51.09h-.26a2.89 2.89 0 01-1.26.31c-.7.12-1.41.23-2.1.42-1.16.33-2.3.71-3.44 1.08-.44.15-.86.35-1.26.51zM231.39 31v-.08a.82.82 0 00-.27 0c-.28.1-.54.25-.82.34a14.68 14.68 0 01-2.37.8c-.53.08-1 .37-1.57.5a40.69 40.69 0 01-5.6 1.07 26.37 26.37 0 01-5.1.21h-1.6l.21.47c.28 0 .26 0 .71.27a1.48 1.48 0 00.76.07c.12 0 .23-.18.35-.28a1.23 1.23 0 001.17.16c.1 0 .17-.17.27-.18a7.74 7.74 0 011.52 0 2.82 2.82 0 00.87 0c.26-.06.54 0 .76-.22.34.23.49-.17.75-.21a1 1 0 01.24 0h1.13a11.77 11.77 0 001.56-.36c.72-.15 1.43-.36 2.15-.51a31 31 0 003.49-1.3 7.6 7.6 0 001.07-.53 2.25 2.25 0 00.32-.22zm-12.79 9l.59-.29c.49-.24 1-.5 1.46-.71.33-.15.69-.22 1-.34.61-.23 1.22-.48 1.84-.7.2-.07.43 0 .65-.1a8.45 8.45 0 00.81-.26c.17-.05.33-.2.48-.19.67 0 1.22-.5 1.9-.39.52-.32 1.15-.06 1.68-.32h.2a.43.43 0 00.19 0c.17 0 .34-.14.52-.18s.58-.08.86-.17a.79.79 0 01.78.1c.15.12.26.12.36 0a.49.49 0 01.68-.08.25.25 0 00.19 0c.14-.1.25-.19.4 0s.24-.22.39 0a.3.3 0 00.29.08c.19-.07.49.14.56-.22a1.94 1.94 0 011.07-.06.51.51 0 00.67-.31h-2.51a12.42 12.42 0 00-2.28.14 14.76 14.76 0 01-1.88.17 2.56 2.56 0 00-1.36.29 1 1 0 01-.36.06 13.12 13.12 0 00-1.55.19c-.68.15-1.34.38-2 .58-.44.14-.87.27-1.3.43a19.86 19.86 0 00-2.74 1 14.64 14.64 0 00-1.47.88.32.32 0 00-.12.4zm17.23-2.53l-.05-.11c-.2 0-.52 0-.6.17s-.32.18-.49.25c-.86.32-1.72.66-2.58 1a20 20 0 01-2 .62c-1.23.3-2.47.58-3.71.81a5.85 5.85 0 01-2.31.31c-.08 0-.17.05-.26.06a4.48 4.48 0 01-.72.11 31.26 31.26 0 01-3.62.09h-.1l-.13.08.19.31h.94c.46 0 .86.27 1.31.26a1.4 1.4 0 01.35 0c.12 0 .23.15.33.13a2.76 2.76 0 00.74-.23 8.1 8.1 0 012.17-.47c.32-.05.65 0 1-.08s.63-.1.94-.15a.39.39 0 00.19-.1 1 1 0 01.53-.13 2.11 2.11 0 00.81-.11 3 3 0 011.45-.34 1.4 1.4 0 001.06-.27 2 2 0 01.77-.4c.59-.2 1.2-.38 1.77-.63s1.15-.59 1.72-.9a1.79 1.79 0 00.3-.28zm-1.38-16.57c-.19-.38-.37-.57-.7-.62a1.27 1.27 0 01-1-.57 1 1 0 00-.21-.15 4.07 4.07 0 00-.44-.18 6.18 6.18 0 01-1.59-.62.67.67 0 00-.35-.06h-.83l-1.91-.27c-.19 0-.35 0-.41.21.36.11.81 0 1 .46l.16-.2c.32.2.61.52 1 .28a.6.6 0 01.87.16c.08.1.2.18.32 0a.23.23 0 01.39 0c.08.37.42.28.64.41l.48.28s.13-.09.18-.07c.32.13.63.28.94.42.06 0 .11.07.17.09s.27 0 .39.06c.29.07.55.2.9.37zm-28.56 3.51a6.27 6.27 0 002 .09 6.55 6.55 0 00.89 0 6.19 6.19 0 011.72-.06c.05 0 .12-.06.18-.1v-.11h-1.54c-.54 0-1.08 0-1.62-.08s-.82-.14-1.23-.18-.54-.06-.4.44zm33.66 11.79l-.27.42v-.43l-.46-.09-.16.41a1.64 1.64 0 01.43 0c.08.25.3.13.44.19s.29.09.3.15c0 .22.19.15.31.2.3.11.46-.21.77-.16l-.23-.48zm-4.14-6.74v.11l.64.27.75.28c-.07-.14-.09-.23-.14-.25zm-3 1l-.08-.13-.89.47.05.12a1.43 1.43 0 00.89-.48zm-5.71-13.17c.45-.06.3-.45.41-.69 0 0 0-.05-.07-.09l-.31.13zm14.43 19.23l.45.45.18-.31zm1.68.82l.48.14v-.13c-.09-.16-.29-.12-.48-.01zm-7.33-15.93l-.07.07.39.31v-.06zm10.1 16.83l-.08.11.27.11v-.08zm-31.88-4.19v-.07h-.29V34zm1.62-22.52c-.15.31-.42.36-.74.37-.64 0-1.28.08-1.92.1h-.41a11.79 11.79 0 00-2.22.16h-.79l-3.47.49a3.53 3.53 0 01-.46 0 .63.63 0 00-.24 0c-.21.08-.4.2-.6.27-.4.14-.81.26-1.22.38l-.1-.64a6.51 6.51 0 012.13-.51 3.47 3.47 0 011.12-.09c.21 0 .46-.13.69-.2a14.2 14.2 0 013.1-.55c.44 0 .88-.15 1.32-.18.27 0 .54-.12.82.05a.47.47 0 00.42-.05c.46-.26 1-.09 1.49-.15a2.35 2.35 0 01.26 0c.55.02.55.02.82.55z"/><path class="cls-4" d="M231.56 49.46l-.06.53-.57.26a2.3 2.3 0 00-1.17.09l.45.21a.42.42 0 01-.26.59 1.08 1.08 0 01-.52.09 10.38 10.38 0 00-2.67.11h-.3a3.44 3.44 0 00-.45-.05 11.07 11.07 0 01-1.91 0 4.39 4.39 0 00-1.45.1l-.38-.46c.3.16.49-.12.79 0s.53-.07.8-.12a3.84 3.84 0 01.88-.14 4.58 4.58 0 001.23-.27c.22 0 .44-.1.68-.16l.13.48c.48.17.64.06.7-.51l4.06-.68zm-6.5-36.21l-2.42-.83v.11a3.15 3.15 0 011.13.62.77.77 0 01-.94.1 3.86 3.86 0 00-1.95-.61 1.9 1.9 0 01-.63-.22c-.18-.08-.34-.18-.54-.08a.46.46 0 01-.26 0l-1.2-.4c-.07-.37.33-.44.44-.69 0 0 .13-.05.19-.05l1 .14-.17.26c.08 0 .22.07.25 0a.83.83 0 01.92-.14c.6.16 1.2.35 1.79.53a.83.83 0 00.15 0c.62 0 1.1.4 1.66.56a1 1 0 01.58.7z"/><path class="cls-4" d="M224.83 14.36c.17-.34.13-.45-.07-.38-.47.18-.64-.32-1-.41 0 0-.07-.21 0-.27a.32.32 0 01.27-.06c.3.14.59.31.88.48.06 0 .1.1.16.13.61.22.89.74 1.23 1.23.13.19.19.36 0 .53l-.63-.58h-.09a.79.79 0 00-.75-.67zm-7.69-3.3h.81c-.09.41-.51.52-.68.85s-.73.18-1 0l-.24-.17c0-.27.08-.63-.37-.73.24 0 .48-.05.72 0 .09 0 .18.11.27.17a1 1 0 00.3.13s.05-.1.19-.25zm9 2.94c-.28-.23-.83-.18-.84-.79.43.14.79.29.84.79zm-4.49 37l-1.18-.1c.38-.23.38-.23 1.18 0zM201.8 13.15c.22-.32.45 0 .64-.14a.52.52 0 01-.64.14zm26.52 14.6c-.19 0-.4.19-.58 0a4.36 4.36 0 01.52-.11s.04.06.06.11zm-9.7 1.25l-.25.08c-.11-.24.09-.22.22-.26zm-3.36-17.12c.18-.2.29-.19.39.08zm16.3 37.59a.77.77 0 01.27.08c.06.05.08.15.12.22l-.09.06-.3-.37zm-5.47-21.65h-.23l-.21-.17h.47z"/><path class="cls-1" d="M96.6 19.2c2.41-2.29 7.57-2.73 9.86-.32s1.57 7.55-.85 9.84-7.16 2.34-9.45-.07-1.98-7.16.44-9.45z"/><path class="cls-3" d="M44.65 58.49C39.7 60.56 36.11 63.41 34 67l1 .58c2-3.33 5.38-6 10.11-8 10-4.17 21.62-2.86 28.9 3.27a19.9 19.9 0 013.49 3.8 26.28 26.28 0 00-11.3 19.78c-.18 3.25.63 5.67 2.33 7 3 2.36 7.53.44 10.12-2.78 5.18-6.45 5-16.31.42-23.69l.73-.43a25 25 0 0123.54-.21l.54-1a24.13 24.13 0 00-3.76-1.63 26.32 26.32 0 00-20.88 1.84c-.27.16-.54.31-.8.48a21.37 21.37 0 00-3.72-4.07c-7.6-6.4-19.72-7.78-30.07-3.45zm33.47 9.07c4.39 7 4.52 16.29-.36 22.37-1.89 2.35-5 4-7.44 3.18a3.56 3.56 0 01-1.1-.59c-1.75-1.36-2-4-1.88-6a25.08 25.08 0 0110.78-18.96z"/></svg>