<svg id="Layer_1" data-name="Layer 1" xmlns="http://www.w3.org/2000/svg" viewBox="0 0 316 112"><defs><clipPath id="clip-path"><path d="M170 74a8.25 8.25 0 008.25 8.25h71.94a8.24 8.24 0 008.23-8.25V9.21A8.19 8.19 0 00255 2.52c-16 9.03-18 38.1-35.42 40.48-12.15 1.64-21.9-2.35-32.64 2.4-5.13 2.6-10.6 7.47-16.94 16.5z" style="fill:none"/></clipPath><style>.cls-2{fill:#005446}.cls-3{fill:#d09fff}.cls-5{fill:#ffd61d}.cls-6{fill:#6ea2ff}</style></defs><path class="cls-2" d="M112.5.96h1.15v109.33h-1.15z"/><path class="cls-3" d="M129.55.96h1.15v109.33h-1.15z"/><path d="M130.13 73.48l12.37 14.55h-24.74l12.37-14.55z" style="fill:#ff4e45"/><path class="cls-5" d="M147.74.96h1.15v109.33h-1.15z"/><path class="cls-2" d="M138.36 39.43h19.91v12.91h-19.91z"/><path class="cls-2" d="M170 61.9V9.21A8.26 8.26 0 01178.24 1h71.94a8.23 8.23 0 014.61 1.41l-27.12 51.74z"/><path class="cls-6" d="M170 74a8.25 8.25 0 008.25 8.25h71.94a8.24 8.24 0 008.23-8.25V9.21A8.19 8.19 0 00255 2.52c-16 9.03-18 38.1-35.42 40.48-12.15 1.64-21.9-2.35-32.64 2.4-5.13 2.6-10.6 7.47-16.94 16.5z"/><g style="clip-path:url(#clip-path)"><path class="cls-3" d="M165.27 3.6h152.91v.57H165.27z"/><path class="cls-3" d="M165.27 14.93h152.91v.57H165.27z"/><path class="cls-3" d="M165.27 26.26h152.91v.57H165.27z"/><path class="cls-3" d="M165.27 37.59h152.91v.57H165.27z"/><path class="cls-3" d="M165.27 48.92h152.91v.57H165.27z"/><path class="cls-3" d="M165.27 60.25h152.91v.57H165.27z"/><path class="cls-3" d="M165.27 71.58h152.91v.57H165.27z"/><path class="cls-3" d="M165.27 82.91h152.91v.57H165.27z"/><path class="cls-3" d="M165.27 94.25h152.91v.57H165.27z"/><path class="cls-3" d="M165.27 105.58h152.91v.57H165.27z"/><path class="cls-3" d="M164.98-41.44h.57v158.63h-.57z"/><path class="cls-3" d="M184.1-41.44h.57v158.63h-.57z"/><path class="cls-3" d="M203.21-41.44h.57v158.63h-.57z"/><path class="cls-3" d="M222.33-41.44h.57v158.63h-.57z"/><path class="cls-3" d="M241.44-41.44h.57v158.63h-.57z"/><path class="cls-3" d="M260.56-41.44h.57v158.63h-.57z"/><path class="cls-3" d="M279.67-41.44h.57v158.63h-.57z"/><path class="cls-3" d="M298.78-41.44h.57v158.63h-.57z"/></g><path class="cls-6" transform="rotate(45 113.071 28.896)" d="M104.58 20.41h16.98v16.98h-16.98z"/><path class="cls-5" d="M259.65 103c-1.07.57-2.15 1.09-3.2 1.74a12.73 12.73 0 01-2.47 1.07c-.81.3-1.64.49-2.45.75-.31.1-.61.39-.92.42a10.48 10.48 0 01-5.11-.53c-.58-.23-1.68.31-2-.79-.54-1.93-1.2-1.32.07-2.28a24.29 24.29 0 005.69-6.08 9.54 9.54 0 00.65-1.59A6.07 6.07 0 01249 95c-.93-1.09-1.85-.72-2.77.06-.34.3-.69.59-1 .87a11.79 11.79 0 00-3.19 4.11 11.6 11.6 0 01-1.46 2.86 8.57 8.57 0 01-2.65 1.67 22 22 0 01-3.45 1.39c-2.3.69-4.59 1.63-7 1.13a2.34 2.34 0 01-1.75-1.52 2.06 2.06 0 01.42-2.75 22.4 22.4 0 004.54-5.61 7 7 0 00.9-4.12l-1.35-1a1.45 1.45 0 00-2 .2 13.64 13.64 0 00-4.37 8.3 3 3 0 01-1.43 2.37c-2 1.19-4 2.46-6.09 3.66a6.49 6.49 0 01-2.65 1 16.53 16.53 0 00-2.43.66 3.2 3.2 0 01-1 .1 35.61 35.61 0 01-4.72-.18 3.33 3.33 0 01-2.55-1.8c-1-1.76-.87-2.75.5-3.84a28 28 0 005.62-6.26 18.49 18.49 0 001.7-3.67 2.07 2.07 0 00-.31-2.35 3 3 0 00-2.48-.93 7.3 7.3 0 00-3.84 2.55 19.29 19.29 0 00-2.12 3.76 20.2 20.2 0 00-1.52 5.74 3.12 3.12 0 01-.55 1.6 18.29 18.29 0 01-6.13 3.87c-1.31.43-2.59 1.07-3.89 1.51a9.94 9.94 0 01-6 .16c-1.84-.52-3.17-2.51-3.46-5.16a1.93 1.93 0 01.41-1.65c.46-.53.93-1 1.35-1.63.71-1 1.38-2 2.06-3s1-2.44 1.75-3.42c.11-.14.07-.55.08-.84 0-.51.05-1 .08-1.62.09.39.15.7.27 1.24.13-.93.3-1.64-.16-2.17-.71-.83-1.56-1.28-2.43-.81a7.61 7.61 0 00-3.36 4.06 28.15 28.15 0 00-1.55 7.56 2.69 2.69 0 01-.64 1.59 24.22 24.22 0 01-4.19 4.11c-1.28.91-1.29.88-2.59 1.71l-1.3 2.16a39.65 39.65 0 007.57-5.82c.38-.36.79-.67 1.18-1a22.37 22.37 0 001.05 2.52c.4.67.52 1.87 1.38 1.77-.05 1.22 1.13.81 1.09 2 .44 0 .85.09 1.12-.14a1.08 1.08 0 011.51 0 4 4 0 003.62.47 9.13 9.13 0 012.13-.54c2.07-.16 3.9-1.5 5.79-2.49 1.35-.7 2.64-1.67 3.9-2.48.86 1.28.9 3.38 2.32 3.39 0 .35 0 .61.06.94l.57-.55c0 .58 0 1.07.06 1.59h.47c0-.37 0-.7-.06-1.35l.64 1.56a13.47 13.47 0 007.11.18 31.39 31.39 0 008.2-3.38l3.87-2.2.76 2.17.66-.14v1.18l.23-.09c.44.8.95 1.4 1.71 1.4s1.66.12 2.48.05c2.2-.16 4.28-1.28 6.41-2 1.22-.43 2.4-1.08 3.61-1.61.15-.07.34 0 .55 0-.06.8.63 0 .58.61a4.48 4.48 0 01.9 1.08c.05 1.28.47-.46 1.33.54.51.59 1.34-.09 1.8.55s1.18.5 1.8.58a11.83 11.83 0 002.59.1 12.38 12.38 0 003.11-.59 28.74 28.74 0 005.67-2.39zm-30.38-8.7a9.6 9.6 0 01-3.2 5.23c.25-2.28 1.93-4.92 3.2-5.22zm-48.77 4.86c.24-1 .4-2.14.57-3.22 0-.15-.14-.35-.17-.42a4.75 4.75 0 00.57-.7c.52-.94 1-2 1.53-2.83a1.71 1.71 0 012.42-.8A7.47 7.47 0 01184.2 95c-.7 1-1.17 2.26-1.85 3.28-.37.56-.8 1.07-1.15 1.67s-.61.35-.85.07.07-.55.15-.86zm28.72-8.1a7.76 7.76 0 01-1.76 4.47c-1.09 1.28-2.13 2.66-3.23 3.94a13.94 13.94 0 01-1.5 1.38c-.59-3.57 3.27-9.85 6.49-9.79zm-6.34 5.85c-.14.73-.23 1.18-.32 1.61-.11-.62-.09-.69.32-1.61zm-.93 3.75l-.13-.06c.12-.62.23-1.25.39-1.86 0-.08.2-.09.33-.12-.19.69-.39 1.38-.54 2.04z"/><path class="cls-3" d="M90.22 91.63c.11-.32-.07-.18-.25-.09L89.8 91c-.68.61.12 1.38-.3 2.14l-.42-.68-.15-.06a2.13 2.13 0 00-.93.35c-.2.17-.59.11-1 .17 0 0-.11.2-.22.21a12.79 12.79 0 01-3.09.13c-.07 0-.15-.06-.21 0a6.32 6.32 0 01-3-.24 35.7 35.7 0 00-1.77-.23 5.2 5.2 0 01-1.71-.4 3.4 3.4 0 00-1.11-.26 2.23 2.23 0 00-.67.14l-2.35-.64c.22.57.74.7 1.08 1a1.88 1.88 0 01.78 1.17c.8.06 1 .21 1.21 1 .28.23.66-.41.9.13l-.23.27a1.31 1.31 0 00.24.12 3 3 0 01.69.16 11.93 11.93 0 012 1.15c.6.47 1.25.84 1.88 1.24a1.13 1.13 0 01.46.46 1.13 1.13 0 00.82.65c.42.14.94.2 1.13.73 0 0 .12 0 .17.09a11.58 11.58 0 011.13.67c.64.5 1.25 1 1.87 1.55l.08.85a1.45 1.45 0 01-1.06.44 1.53 1.53 0 01-1.37-.66 3.67 3.67 0 00-.53-.59.37.37 0 00-.12-.06c-.52 0-.52 0-.71-.46a.67.67 0 00-.11-.18c-.44-.41-.87-.82-1.32-1.21-.07-.07-.23 0-.34-.06s-.29 0-.33-.08c-.33-.52-.93-.48-1.4-.75l-.38-1-.48.43a4.08 4.08 0 01-1-.35 3.91 3.91 0 01-.68-.75v-.74c-.63.19-1.11.45-1.74 0a11.61 11.61 0 01-1.58-1c-.08-.08-.27 0-.46 0a1.62 1.62 0 00.72 1.33 3.22 3.22 0 011.11 1.06 1.9 1.9 0 01.08.36h-.58v.15l.53.3.08-.49c.3 0 .51.1.48.5a2.45 2.45 0 00.2.72c.34.07.2-.33.37-.53.06 0 .16.11.21.09.77-.27 1.2.27 1.68.69l.18.11c-.37 1-.26 1.11.84 1.5v-.61a.81.81 0 01.22 0 3.31 3.31 0 011.66 1.14c.11.17.48.15.69.29.73.5 1.44 1 2.16 1.55l1.07.76c-.37.23-.59.32-.94.11s-.73-.2-1.06-.38c-.66-.36-1.28-.79-1.93-1.17a9.93 9.93 0 00-1-.5 2.58 2.58 0 01-1.39-.92c-.25 0-.5.14-.66.07-.57-.26-1.1-.57-1.62-.85l.45-1a1.23 1.23 0 001 .83c.06-.73-.78-.64-.86-1.14-.57 0-.78.47-1.07.82-.37 0-.74-.25-1.13 0-.09.06-.34-.06-.47-.16-.72-.54-1.45-1.09-2.14-1.67s-1.21-1.08-1.79-1.64c-.37-.35-.63-.83-1.24-.81 0 0-.11-.09-.13-.15-.09-.41-.37-.39-.75-.25l-.28-1a.64.64 0 00-.8.2.87.87 0 01-.57-.92 1.21 1.21 0 00-1.11-1c-.21 0-.45.25-.57-.06a1.63 1.63 0 010-.61L64 91.51c.13-.49.51-.43.79-.52s.57-.38.82.05l.37-.18a1.31 1.31 0 01-.48-.79c-.13-.39-.53-.68-.81-1a22.47 22.47 0 00-1.6-1.89c-.54-.52-.63-1.33-1.38-1.73l1.06-.74a1.18 1.18 0 00-.13 1.19c.35-.44 0-.83.11-1.19a1.78 1.78 0 01.64-1.76c.42-.36.43-.71.2-1.59l.85-.17c-.25-.35-.08-.64.19-.92s.36-.87.86-1c.12 0 .24-.1.37-.13s.33 0 .42-.07a1.22 1.22 0 011.56-.11l.79-.56.25.36c.57-.13 1.11-.26 1.65-.35.11 0 .27.11.37.22.72.78.79.79 1.63.19l.17-.08a1.4 1.4 0 01.29.16 1.4 1.4 0 001.22.43 1.69 1.69 0 011.33.87l4.25.81c.75.14 1.49.31 2.23.42a.77.77 0 00.6-.3l.72.51a3.76 3.76 0 00-1-1.8c-.19-.24-.16-.72-.66-.65a.48.48 0 01-.55-.25 15.91 15.91 0 00-2.72-3.49 6.39 6.39 0 01-.44-.57h.51c-.43-.49-.79-.93-1.18-1.35q-2-2.16-3.92-4.29a5.12 5.12 0 00-.63-.5l-1.09-.76c-.06 0-.11-.12-.18-.13-1.16-.28-1.8-1.34-2.76-1.91-.25-.15-.4-.43-.62-.62-.43-.37-.89-.69-1.31-1.07a21.6 21.6 0 01-2.67-2.57A21.57 21.57 0 0062.34 60a19.33 19.33 0 01-3.59-4.57 23.34 23.34 0 01-1-2.54 8.92 8.92 0 01-.49-1.77 2.42 2.42 0 01.43-2.29.57.57 0 00.12-.26 12.09 12.09 0 011.36-2.23c.14-.26.26-.75.72-.27 0 0 .12-.07.19-.09l.69-.25.08-.77-1 .7-.1-.1c.18-.22.32-.53.55-.63a6.37 6.37 0 001.7-1.26 2.07 2.07 0 011.55-.56c.43 0 .88-.25 1.39 0-.36.37-.87 0-1.18.26a2.22 2.22 0 01-1.1.47 4.05 4.05 0 00-1.06.64l-.34 1.11a1.6 1.6 0 00.89-.53 6 6 0 01.89-.78 3.17 3.17 0 01.71-.27l.06.13a7.67 7.67 0 00-.9.58c-.1.08-.09.3-.16.6s-.85-.07-.9.7a1 1 0 011.15-.35l-1.49 1.18a2.43 2.43 0 00.57.35.68.68 0 00.51-.1 4.83 4.83 0 00.78-.85 2.2 2.2 0 00.22-.61 1.88 1.88 0 011.41-.13 1.09 1.09 0 00.79-.08 10.32 10.32 0 012-.7c.38-.1.84 0 1.13-.38 0-.05.23 0 .35 0a1.59 1.59 0 00.57 0c-.47-.42-1.1-.4-1.65-.66.42-.24.42-.25 1.44 0 .48.11.94.25 1.41.37v.19l-.72.24c.56.75 1.47.5 2.3.89a1.49 1.49 0 00.16.3c.21.3.24.28.66 0 .09-.06.26 0 .45.06l-.15.38.06.05.47-.51-1.73-.75a.61.61 0 01.85-.14c.52.33 1.36.14 1.61.94-.2.17-.63-.16-.62.38.35 0 .72 0 .49.61l1-.32c-.2.5 0 .56.31.57a3.17 3.17 0 012.21 1c.05.05.11.13.16.12.83 0 1.34.69 2.07.9s1.66.6 2.49.91c0-.28.15-.55.38-.28.45.53 1 .32 1.52.24 0-.71-.55-1.1-.86-1.67l.24-.41a9 9 0 00-2.42-3l-.19.46-.57-.61.68.08c-.06-.2-.06-.38-.15-.46-.5-.48-1-.91-1.5-1.41-.22-.24-.23-.74-.47-.88a3.07 3.07 0 01-.82-.51c-.26-.32-.44-.62-.91-.66a.69.69 0 01-.42-.55 1.63 1.63 0 00-.72-1.35c-1.14-1-2.32-2-3.48-3-.64-.54-1.28-1.09-1.93-1.61-.45-.35-.93-.64-1.38-1-.24-.18-.45-.42-.68-.63L69 33c.15-.61-.16-.79-.48-1-.6-.38-1.18-.8-1.76-1.21a.6.6 0 01-.2-.22 10.27 10.27 0 00-2.29-2.27c-.49-.44-1-.86-1.5-1.28a2.47 2.47 0 00-.44-.27c-.11-.06-.29-.06-.33-.14-.28-.53-.9-.64-1.25-1.06a5.7 5.7 0 01-.39-.68c-.12-.21-.22-.54-.39-.58-.42-.09-.47-.41-.64-.7-.27-.46-.61-.89-.9-1.33l-2.25-3.46c.41-.19.62-.43.49-.87 0-.13.13-.3.2-.46.15-.36.08-.6-.31-.66-.64-.08-1-.6-1.49-.91-.23-.16-.28-.62-.42-1l.48-.38c.11-.64-.32-1-.66-1.43A9.84 9.84 0 0156 9.51a1.81 1.81 0 01.28-.34 4.28 4.28 0 00.61-.5 4.78 4.78 0 00.44-.77l.34.45c.46.07.8-.28 1.17-.52a2.24 2.24 0 011.9-.56c.17.05.4-.16.61-.18s.25-.28.24-.52l2.31.14a4 4 0 011.67-1 1.45 1.45 0 011.28-.15 2.12 2.12 0 01.8.47.6.6 0 001 .11 4.57 4.57 0 01.48.35.58.58 0 01.21.65c-.15.56-.12.57.42.83a2.25 2.25 0 00.61.23c.37.06.58-.16.59-.54 0-1.15 0-1.15 1.11-1a2.89 2.89 0 01.29 0 15.44 15.44 0 015.56 3.12 9.15 9.15 0 002.53.88c.56 0 1.07 0 1.29.67.05.17.34.26.56.42-.23.38-.09.65.34.86a1.3 1.3 0 01.66.75c.11.29.53.46.75.73s.34.5.29.69a1.4 1.4 0 01-.59.74 3.18 3.18 0 01-1.07.33 1.93 1.93 0 01-.57-.09c-.21 0-.47-.15-.63-.07a.87.87 0 01-.9-.13 18 18 0 00-4.39-1.94c-.7-.21-1.37-.53-2.06-.79A17.87 17.87 0 0070.6 12a.54.54 0 00-.31.1 3.88 3.88 0 01-2.13.52c-.46 0-.93.05-1.46.08l-.18-.32a2.51 2.51 0 01-1.31-.17c-.47-.26-.91.06-1.31.45.53.72 1 1.43 1.55 2.12a4.81 4.81 0 00.5.51l.65.69c.12.12.21.35.34.37.65.12.89.64 1.21 1.11a1.31 1.31 0 00.77.68c.31.08.52.57.88.8a3.38 3.38 0 01.75.76 6.18 6.18 0 001.2 1.08 9.89 9.89 0 011.7 1.66c.25.3.46.5.83.48a1 1 0 011 .57 8.58 8.58 0 00.53.7c.17.23.31.48.45.7-.42.46-.59-.39-1 0a1.85 1.85 0 00.73.91c.62.54 1.27 1.05 1.91 1.56a3.35 3.35 0 00.57.44 7.18 7.18 0 011.77 1.62c.26.24.42.1.66-.05a3.45 3.45 0 00-1.13-1.09c-.23-.14-.55-.3-.33-.73.44.39 1.08.49 1.31 1.12a.27.27 0 00.17.13 5 5 0 012.33 1.43 4.77 4.77 0 001.54 1.24c.16.06.23.36.35.55.36.61.41.66 1.06.84v.5a20.12 20.12 0 012.8 3.07.45.45 0 01-.7-.09 17.17 17.17 0 01-1.3-1.43 6.17 6.17 0 00-2-1.66 2.47 2.47 0 00.18.42A9.85 9.85 0 0086.39 35a16 16 0 011.4 1.45 7.33 7.33 0 01.6.83 7.68 7.68 0 00.5.63c.47.48 1 .93 1.42 1.39a1 1 0 01.19.23A16.86 16.86 0 0192.23 43c0 .16.19.29.25.44s.11.44.19.74c-.45-.07-.73 0-1-.39s-1-.64-1.4-1.1-.54-.69-.8-1-.71-.87-1-1.33a4.59 4.59 0 00-1-.85l-.81-.71-.25.17v.18c.35.51.69 1 1.07 1.54.22.3.52.56.74.86a1.73 1.73 0 01.32.89l-.39-.35c-.34.27.12.37 0 .73l-.86-.13c.13.66.12 1.11.8 1.19l.34-.74c.79.27.75 1.1 1.23 1.68-.37.07-.67.22-.89.14s-.36-.38-.53-.57c-.2.39-.2.39 1 2l.9-.7.42.58.24-.41.49 1-.45.32a1.75 1.75 0 01.72 2 6.25 6.25 0 00-.18.86c0 .35-.19.74.31 1 .11-.16.28-.3.31-.46.13-.58.45-1.17.1-1.78v-.14c.45-.39.06-.87.14-1.3a.69.69 0 00-.1-.42c-.5-.71-.2-1.46-.16-2.2l.13-.06c.2 1 1 1.43 1.59 2.13a1.52 1.52 0 01.35.86c0 .35-.18.74.14 1.06v.28c-.18.57-.18.57.28.92a6.13 6.13 0 01-.62 2.21l-.47-.4-1 .54v.53l-.45-.08a1.22 1.22 0 00-.67-1.41c-.18.13-.35.28-.54.39s-.46 0-.46-.18a5.52 5.52 0 01.25-1.08c-.07-.12-.21-.21-.35 0a5.68 5.68 0 01-2.46 2.14.7.7 0 01-.56.05c-.46-.35-.86 0-1.25 0a5.51 5.51 0 00-.11.85.59.59 0 00.27.39s.25-.07.35-.15a1.17 1.17 0 00.17-.28l.62.43-.87.75-.32-.11-.16.47.41.19c-.42.66-.88.76-1.44.33s-.93-.48-1.57.06c.08-.7-.35-.93-.88-1.14a16.39 16.39 0 01-2.09-1.06 3.9 3.9 0 01-.71-.84l-.62.21a4.22 4.22 0 00-.92-.88 4 4 0 00-1.29-.15 20 20 0 00-5.45-2c-.23-.06-.52-.21-.81.07.63.36.87 1.11 1.58 1.35.13.05.18.3.3.4 1.3 1 2.23 2.31 3.43 3.38.84.76 1.58 1.63 2.45 2.34.49.4.79.94 1.28 1.32.47.54.93 1.09 1.4 1.62 1.93 2.19 4 4.27 5.68 6.63.76 1 1.45 2.12 2.19 3.17.34.49.71 1 1 1.37.37.09.77.08 1 .27s.28.6.42.91a5.12 5.12 0 01.25.53c.38 1.12.75 2.25 1.13 3.38a1.15 1.15 0 00.09.33 6.94 6.94 0 011.08 2.94 5.79 5.79 0 01.11 1v1.11a1.12 1.12 0 01-.37 1 2.19 2.19 0 00-.77 1.53 11.58 11.58 0 00-.33 2.11 1.05 1.05 0 01-.73 1.1 1 1 0 00-.66 1.09 6.38 6.38 0 01-.48 2.59 1.85 1.85 0 01-.3.39zM74 29.28l.61-.53a3 3 0 01.87.35 3.06 3.06 0 01.47.79c-.63.17-.67.29-.26.72l.23.27c.36.39.65.94 1.1 1.13a12.59 12.59 0 011.75 1.26c.3.2.59.57 1 .45a2.69 2.69 0 00.43.66c.49.42 1 .79 1.52 1.18h.13c.11-.39-.08-.63-.4-.84a3.22 3.22 0 01-.59-.63s.09-.13.13-.2c0 .09.08.22.14.24a2.51 2.51 0 011.32 1.12.52.52 0 00.11.1c.41.38.41.38.91-.14a6.24 6.24 0 00-1.08-1 2.91 2.91 0 01-.72-.58 5.13 5.13 0 00-.51-.69c-.77-.65-1.57-1.27-2.35-1.9-.27-.23-.52-.49-.78-.74s-.56-.74-.9-.81a1.81 1.81 0 01-1.13-.91 3.65 3.65 0 00-.67-.69 12.89 12.89 0 01-2.18-1.72 1.61 1.61 0 00-.3-.21c-.47-.33-1-.63-1.4-1-.8-.71-1.56-1.47-2.34-2.2-.3-.29-.64-.55-.94-.85s-.49-.61-.78-.86c-.52-.48-1.08-.92-1.62-1.38a13.05 13.05 0 00-2-1.69 2 2 0 01-.92-1.31 1.32 1.32 0 00-.5-.7 1.3 1.3 0 01-.47-.63c-.18-.43-.37-.85-.53-1.28-.08-.23-.25-.37-.43-.31s-.21.27-.29.43a4 4 0 00-.16.56c-.2-.32-.42-.52-.39-.66.13-.52-.18-.8-.48-1.08a1.24 1.24 0 00-.6 1.29c0 .67-.19 1.39.36 2a1.61 1.61 0 01.41.93c0 .06.09.1.13.13.27-.26.45-.63 1-.58.11.36.55.48.6 1s.73.52.69 1.06h.13c.34 0 .43.27.61.47a1.31 1.31 0 00.27.19l.12-.12c-.31-.48-.6-1-.93-1.45s-.51-.58-.75-.89a.6.6 0 010-.86c.05.2.09.3.11.41a1 1 0 00.65.8c.49.09.61.43.72.79a1 1 0 00.36.59c.42.3 1.05.38 1.13 1.08 0 .16.43.26.66.41s.3.25.14.51l-.82-.17a1.32 1.32 0 00-1.11-1.29v.7a11.27 11.27 0 001.41 1.54A10.77 10.77 0 0166.37 23l-.65.37a1.21 1.21 0 00.82.86l.4-.57a3.61 3.61 0 011.67 1.13 6.63 6.63 0 001.26.92 1.71 1.71 0 00-.83-1.4 9.27 9.27 0 01-.84-.82 1.21 1.21 0 01.66.35c.19.21.36.27.6.13.18.41.38 0 .64 0l.67 1.17c.06.11.16.3.19.29.53-.17.6.44 1 .57a1 1 0 01.51 1c-.44-.23-.48-1-1.13-.82a1.94 1.94 0 00.85 1.45c.43.34.8.87 1.39.79l.43.76 1.24.87.08-.31-.54-.38c-.26-.1-.49-.29-.79-.08zM63.83 13.94l-.2.16a21.37 21.37 0 001.49 2.25 12.08 12.08 0 001.66 1.44h.31a8 8 0 00-1.55-2.17 15 15 0 00-1.71-1.68zm7 7.13a17.22 17.22 0 00-3.27-2.95 3.23 3.23 0 001.14 1.51A23.22 23.22 0 0070.56 21a.71.71 0 00.26.07zM70 56.72a2.13 2.13 0 001 1c.16.06.28.24.42.36l.27.22-.71-1.53c-.23.07-.55-.49-.98-.05zm14.9-19.34a3.53 3.53 0 00.63.75c.24.17.35.69.9.44-.24-.26-.17-.74-.7-.67a.23.23 0 01-.14-.15c.04-.43-.29-.41-.66-.37zM72.65 22.46A3.91 3.91 0 0074.37 24a5.34 5.34 0 00-1.72-1.54zm-4 32.76c.06.71.57.9 1 1.12 0 0 .09-.07.17-.14a2 2 0 00-.28-.15l-.33-.1c.24-.61.21-.65-.53-.73zm-3-1.72c.33.27.55 0 .66-.2a.61.61 0 00-.3-.83l.19.78-.6-.32zm18.83-16.76c0-.59-.39-.76-.81-1-.14.49-.14.49.81 1zM58 15c.12.34 0 .75.39 1 .17-.89.13-1-.39-1zm24.3 15.58l-.68-.65c-.12.47.04.64.68.65zM67 54.62v.16h.41c0-.19.4-.37 0-.59zm1.47 40.29h.21l.12-.45h-.31zm-2.26-3.24c0 .11-.1.19-.09.27a1.46 1.46 0 00.12.35c.3-.29.3-.29.01-.62zm-7.14-42.25h-.25v.81h.17zm26.12-.09c0-.47 0-.47-.38-.67zM59.06 17.27l.18-.11-.46-.64-.09.06zm18.66 33.59c0 .57 0 .57.47.55zm-12.58-.06l-.23.64h.64zm25.2-1.27l.2-.58c-.44.05-.32.25-.2.58zm-25.29 2.28l.36.44c.17-.38.03-.5-.36-.44zm6.78-29.63c.17-.36 0-.46-.38-.63zm10.71 13.91a2.56 2.56 0 00-.18-.3l-.13-.24c-.18.37-.04.45.31.54zm-8.37 33l-.14.13c.06.06.1.15.17.19a1.12 1.12 0 00.25.11v-.1zm6 7.57l.09-.07-.38-.51-.09.07zM89.81 47h.08a.64.64 0 000-.2 1.21 1.21 0 00-.14-.2l-.13.08zm-5.37 6.66c-.12-.19-.23-.42-.54-.11zM72 28.64c.13.42.28.38.55.17zM61 18.42l.15-.08a1 1 0 00-.1-.24c0-.05-.11-.07-.31-.18zm18.91 68.19c0 .09 0 .17.09.21a.49.49 0 00.19 0 .77.77 0 00-.06-.23s-.13.03-.22.02zM67 24.1c-.31.36-.07.41.21.57zm20.82 27.63l-.12.16.28.19.09-.09zM72.66 92.22c-.06-.09-.08-.16-.13-.19s-.13 0-.13 0v.17a.64.64 0 00.26.02z"/><path class="cls-3" d="M63.05 89h-.56l-1.08-1.91c.07-.13.17-.23.42-.13a2.79 2.79 0 011.05.58c.08.11.19.31.15.38-.22.32-.03.66.02 1.08zm27.82 16.57c-.38.33-.62.36-1 0s-.77-.84-1.18-1.29c.83-.36 1.2-.22 1.61.49.19.23.37.51.57.8zM79.12 27.6c-.52-.37-1-.67-1.42-1-.26-.22-.45-.53-.71-.75a6.4 6.4 0 00-.88-.52l.64-.34a.73.73 0 01.09.08 2.65 2.65 0 00.36.61 3.79 3.79 0 001.4 1 1.47 1.47 0 01.58.51c.05.06-.03.22-.06.41zm-2 46.47l-2.5-2.25.11-.13a6.65 6.65 0 012.5 2.24zM89 69c-.44-.46-.88-.91-1.31-1.38a1.58 1.58 0 01-.15-.4c0-.1-.08-.27-.14-.28-.46-.1-.34-.4-.26-.73.27 0 .48.1.51.39.07.71.66 1.1 1 1.66.14.24.33.47.49.7zm1.59-30.73c.42.5 1 .85 1.06 1.54-.2.27-.41.19-.61 0a1.36 1.36 0 01-.45-1.54zM70.88 68.25l3 2.59a9.31 9.31 0 01-3-2.59zm16.03 37.65a5.38 5.38 0 011.14.06c.21.06.36.33.64.62l-1 .07-.29-.51h-.48zM67.85 43.22c-.08.25-.12.4-.13.4-.6-.1-1.26.06-1.78-.45.64-.35 1.17.35 1.91.05zm14.46 36.56l.17.78c-.38.16-.47-.18-.59-.37s-.56-.61-.21-1l.66.65zm-6.04-33.56c.14 0 .31-.16.38-.11.47.3.93.64 1.44 1a3.12 3.12 0 01-1.82-.89zm8.58 17.21l.86.78c-.58.43-.71.36-.86-.78zm5.36 28.21c.3 0 .45.21.34.5a8.56 8.56 0 01-.42.79l-.13-.05c.08-.42.17-.83.24-1.25zM66.37 44a1.35 1.35 0 01-1.5.1v-.16h.72zm13.11 14.59v-.29c0-.09 0-.08.1-.18.23.27.74.21.76.85l-.86-.41zM79.67 48l-.88-.41c.56-.17.79-.02.88.41zM68.94 66.55l.66.57-.13.15-.62-.57zm20.24 2.75l.3.6c-.48-.08-.48-.08-.3-.6zm-10.43 31.49l-.11-.47c.16 0 .35 0 .36.07a2 2 0 010 .41zm4.57-38.89l.5.17c-.29.3-.41.1-.5-.17zM71.66 44.81c.2-.44.35-.4.53-.19zM80.9 60c0-.5.27-.32.48-.27zm8.03 32.41l.15.06c0 .29-.09.35-.39.29zm-.33 2.08l-.27.23-.09-.12.28-.22zm-9.55-51.98l-.16-.25h.07l.16.25zM81 33.85a.8.8 0 01-.78-.3 8.55 8.55 0 00-.65-.57l.19-.43 1.24 1.3zm-4.29-3.24l-.47-.31c.49-.25.38.29.47.31zm-2.45-1.98l-.33-.32.1-.12.36.31z"/></svg>